<svg width="29" height="28" viewBox="0 0 29 28" fill="none" xmlns="http://www.w3.org/2000/svg">
<path d="M14.9272 0C11.2142 0 7.65326 1.475 5.02775 4.1005C2.40224 6.72601 0.927246 10.287 0.927246 14C0.927246 17.713 2.40224 21.274 5.02775 23.8995C7.65326 26.525 11.2142 28 14.9272 28C18.6403 28 22.2012 26.525 24.8267 23.8995C27.4522 21.274 28.9272 17.713 28.9272 14C28.9272 10.287 27.4522 6.72601 24.8267 4.1005C22.2012 1.475 18.6403 0 14.9272 0ZM14.9407 6.72224C15.8613 6.72224 16.6207 7.48048 16.6207 8.40224C16.6207 8.70912 16.5311 8.9936 16.3844 9.24224C17.1186 9.52809 17.7493 10.0294 18.1934 10.6802C18.6376 11.331 18.8745 12.101 18.873 12.889C18.873 12.889 18.8607 14.7168 18.8607 15.745C18.8607 15.6845 18.8764 15.801 18.957 15.9376C19.0376 16.0742 19.162 16.2422 19.2896 16.3968C19.5439 16.707 19.8037 16.9602 19.8037 16.9602C19.8839 17.0379 19.939 17.1378 19.962 17.2471C19.9849 17.3564 19.9747 17.4701 19.9326 17.5735C19.8904 17.677 19.8183 17.7654 19.7255 17.8276C19.6327 17.8897 19.5234 17.9227 19.4117 17.9222H17.1784C17.1779 18.2825 17.0907 18.6373 16.9242 18.9568C16.7577 19.2763 16.5169 19.551 16.222 19.7579C15.8313 20.0297 15.3644 20.1702 14.8886 20.1591C14.4129 20.148 13.953 19.986 13.5754 19.6963C13.3054 19.4863 13.0871 19.2172 12.9372 18.9096C12.7873 18.6021 12.7098 18.2643 12.7108 17.9222H10.4428C10.3307 17.9223 10.2212 17.8887 10.1284 17.8258C10.0357 17.7629 9.96389 17.6737 9.9224 17.5696C9.8809 17.4655 9.8716 17.3513 9.89568 17.2419C9.91976 17.1325 9.97613 17.0327 10.0575 16.9557C10.0575 16.9557 10.324 16.7037 10.585 16.3957C10.7149 16.2411 10.8426 16.072 10.9244 15.9365C11.0061 15.7998 11.0207 15.6845 11.0207 15.7461C11.0207 14.5186 11.033 12.8822 11.033 12.8822C11.0369 12.1002 11.2738 11.337 11.7135 10.6902C12.1532 10.0435 12.7757 9.54246 13.5015 9.2512C13.3458 8.99526 13.2625 8.70182 13.2607 8.40224C13.2607 7.48048 14.0189 6.72224 14.9407 6.72224ZM14.9407 7.84224C14.6248 7.84224 14.3807 8.0864 14.3807 8.40224C14.3807 8.71808 14.6248 8.96224 14.9407 8.96224C15.2565 8.96224 15.5007 8.71808 15.5007 8.40224C15.5007 8.0864 15.2565 7.84224 14.9407 7.84224ZM14.953 10.0845V10.0867C14.5846 10.0848 14.2194 10.156 13.8787 10.2961C13.538 10.4363 13.2284 10.6427 12.968 10.9033C12.7076 11.1639 12.5015 11.4736 12.3616 11.8145C12.2217 12.1553 12.1508 12.5205 12.153 12.889C12.153 12.889 12.1407 14.5264 12.1407 15.745C12.1407 16.0776 12.013 16.296 11.8831 16.5133C11.8192 16.6174 11.742 16.7059 11.6703 16.8022H18.2021C18.1304 16.7037 18.0543 16.6118 17.9916 16.5066C17.8639 16.2904 17.7407 16.0731 17.7407 15.745C17.7407 14.7078 17.753 12.8822 17.753 12.8822C17.7557 12.5139 17.6851 12.1487 17.5453 11.8079C17.4055 11.4671 17.1993 11.1575 16.9388 10.8971C16.6782 10.6368 16.3684 10.4308 16.0275 10.2913C15.6866 10.1518 15.3213 10.0815 14.953 10.0845ZM13.8252 17.9222C13.8234 18.1272 13.8783 18.3286 13.9836 18.5043C14.089 18.6801 14.2409 18.8233 14.4225 18.9183C14.6041 19.0133 14.8084 19.0563 15.0128 19.0426C15.2173 19.0289 15.414 18.959 15.5813 18.8406C15.7293 18.7375 15.8502 18.6002 15.9337 18.4403C16.0172 18.2803 16.0607 18.1026 16.0607 17.9222H13.8252Z" fill="#001039"/>
</svg>
