<svg width="29" height="28" viewBox="0 0 29 28" fill="none" xmlns="http://www.w3.org/2000/svg">
<path fill-rule="evenodd" clip-rule="evenodd" d="M14.9272 0C11.2142 0 7.65326 1.475 5.02775 4.1005C2.40224 6.72601 0.927246 10.287 0.927246 14C0.927246 17.713 2.40224 21.274 5.02775 23.8995C7.65326 26.525 11.2142 28 14.9272 28C18.6403 28 22.2012 26.525 24.8267 23.8995C27.4522 21.274 28.9272 17.713 28.9272 14C28.9272 10.287 27.4522 6.72601 24.8267 4.1005C22.2012 1.475 18.6403 0 14.9272 0ZM7.67525 7.84H10.1717L11.6389 12.3379H20.6392L21.1242 10.9939L22.177 11.377L19.8048 17.92L12.9258 17.9312L12.2896 20.1645H20.5071V21.2845H11.5471C11.4605 21.2843 11.3752 21.2641 11.2977 21.2254C11.2203 21.1867 11.1529 21.1306 11.1008 21.0615C11.0487 20.9924 11.0134 20.9121 10.9975 20.827C10.9817 20.7419 10.9858 20.6543 11.0095 20.571L12.0063 17.0766L9.36085 8.96H7.67525V7.84ZM12.0052 13.4579L12.3636 14.56H19.8317L20.2316 13.4579H12.0052ZM12.7287 15.68V15.6822L13.0983 16.8134L19.0197 16.8022L19.4274 15.68H12.7298H12.7287Z" fill="#001039"/>
</svg>
