<svg width="33" height="33" viewBox="0 0 33 33" fill="none" xmlns="http://www.w3.org/2000/svg">
<path d="M12.9035 6.01709C12.8503 6.02658 12.7956 6.03607 12.7488 6.0677C12.5603 6.19265 12.5184 6.45205 12.6457 6.63711L13.5352 7.94042C12.1607 8.65534 11.1359 9.84318 10.8023 11.2683H22.1977C21.8641 9.84318 20.8393 8.65534 19.4648 7.94042L20.3543 6.63711C20.4816 6.45205 20.4397 6.19265 20.2512 6.0677C20.061 5.94275 19.7984 5.99652 19.6711 6.18158L18.6914 7.59877C18.0114 7.35519 17.2734 7.21917 16.5 7.21917C15.7266 7.21917 14.9886 7.35519 14.3086 7.59877L13.3289 6.18158C13.2338 6.04239 13.0614 5.98703 12.9035 6.01709ZM14.2312 9.24372C14.5729 9.24372 14.85 9.51577 14.85 9.85109C14.85 10.188 14.5729 10.4585 14.2312 10.4585C13.888 10.4585 13.6125 10.188 13.6125 9.85109C13.6125 9.51577 13.888 9.24372 14.2312 9.24372ZM18.7688 9.24372C19.112 9.24372 19.3875 9.51577 19.3875 9.85109C19.3875 10.188 19.112 10.4585 18.7688 10.4585C18.4271 10.4585 18.15 10.188 18.15 9.85109C18.15 9.51577 18.4271 9.24372 18.7688 9.24372ZM9.4875 12.0781C8.8043 12.0781 8.25 12.6222 8.25 13.2928V18.9616C8.25 19.6322 8.8043 20.1763 9.4875 20.1763C9.63252 20.1763 9.77109 20.1463 9.9 20.1004V12.154C9.77109 12.1082 9.63252 12.0781 9.4875 12.0781ZM10.725 12.0781V20.9862C10.725 21.6552 11.2809 22.2009 11.9625 22.2009H21.0375C21.7191 22.2009 22.275 21.6552 22.275 20.9862V12.0781H10.725ZM23.5125 12.0781C23.3675 12.0781 23.2289 12.1082 23.1 12.154V20.1004C23.2289 20.1447 23.3675 20.1763 23.5125 20.1763C24.1957 20.1763 24.75 19.6322 24.75 18.9616V13.2928C24.75 12.6222 24.1957 12.0781 23.5125 12.0781ZM12.375 23.0107V24.6304C12.375 25.524 13.1146 26.25 14.025 26.25C14.9354 26.25 15.675 25.524 15.675 24.6304V23.0107H12.375ZM17.325 23.0107V24.6304C17.325 25.524 18.0646 26.25 18.975 26.25C19.8854 26.25 20.625 25.524 20.625 24.6304V23.0107H17.325Z" fill="#0FB600"/>
<circle cx="16.5" cy="16.5" r="16" stroke="#0FB600"/>
</svg>
