<svg width="33" height="33" viewBox="0 0 33 33" fill="none" xmlns="http://www.w3.org/2000/svg">
<path fill-rule="evenodd" clip-rule="evenodd" d="M21.4079 15.6101C21.3836 13.1415 23.4053 11.9569 23.4956 11.8982C22.3593 10.2228 20.5889 9.99246 19.9581 9.96657C18.4516 9.81326 17.0189 10.8611 16.2535 10.8611C15.4903 10.8611 14.3107 9.98957 13.0616 10.0126C11.4198 10.0371 9.90609 10.9752 9.05969 12.4574C7.35392 15.4406 8.62339 19.862 10.286 22.281C11.0981 23.4656 12.0667 24.7963 13.3386 24.7488C14.5631 24.7002 15.0265 23.9492 16.5077 23.9492C17.9885 23.9492 18.4044 24.7488 19.7007 24.7232C21.0187 24.6988 21.8537 23.5156 22.6605 22.327C23.5941 20.9524 23.9768 19.6231 24 19.5547C23.9707 19.5414 21.43 18.5605 21.4043 15.6111L21.4079 15.6101ZM18.9732 8.36377C19.6479 7.53864 20.1038 6.39324 19.9792 5.25C19.0071 5.28994 17.8283 5.90312 17.1303 6.72718C16.5038 7.45875 15.9565 8.62466 16.1029 9.7445C17.1885 9.8298 18.297 9.18854 18.9721 8.3652L18.9732 8.36377Z" fill="black"/>
<circle cx="16.5" cy="16.5" r="16" stroke="black"/>
</svg>
