<svg width="30" height="30" viewBox="0 0 30 30" fill="none" xmlns="http://www.w3.org/2000/svg">
<rect x="6.10352e-05" width="30" height="30" rx="15" fill="url(#paint0_linear_1_139)"/>
<path d="M15.0024 7.62229C17.4073 7.62229 17.6896 7.63301 18.6401 7.67589C19.5191 7.71519 19.9944 7.8617 20.3124 7.98677C20.7341 8.15114 21.0342 8.3441 21.3487 8.65855C21.6631 8.973 21.8597 9.27316 22.0205 9.69481C22.1419 10.0128 22.292 10.4881 22.3313 11.3671C22.3742 12.3176 22.3849 12.5999 22.3849 15.0048C22.3849 17.4096 22.3742 17.6919 22.3313 18.6424C22.292 19.5214 22.1455 19.9967 22.0205 20.3147C21.8561 20.7364 21.6631 21.0365 21.3487 21.351C21.0342 21.6654 20.7341 21.862 20.3124 22.0228C19.9944 22.1443 19.5191 22.2943 18.6401 22.3336C17.6896 22.3765 17.4073 22.3872 15.0024 22.3872C12.5976 22.3872 12.3153 22.3765 11.3648 22.3336C10.4858 22.2943 10.0105 22.1478 9.69249 22.0228C9.27084 21.8584 8.97068 21.6654 8.65623 21.351C8.34178 21.0365 8.14524 20.7364 7.98444 20.3147C7.86295 19.9967 7.71287 19.5214 7.67357 18.6424C7.63069 17.6919 7.61997 17.4096 7.61997 15.0048C7.61997 12.5999 7.63069 12.3176 7.67357 11.3671C7.71287 10.4881 7.85938 10.0128 7.98444 9.69481C8.14882 9.27316 8.34178 8.973 8.65623 8.65855C8.97068 8.3441 9.27084 8.14756 9.69249 7.98677C10.0105 7.86527 10.4858 7.71519 11.3648 7.67589C12.3153 7.62943 12.6012 7.62229 15.0024 7.62229ZM15.0024 6C12.5583 6 12.251 6.01072 11.2898 6.0536C10.3321 6.09648 9.6782 6.25013 9.10647 6.47168C8.5133 6.70037 8.01303 7.01125 7.51277 7.51151C7.0125 8.01178 6.7052 8.51562 6.47293 9.10521C6.25138 9.67695 6.09773 10.3309 6.05485 11.2921C6.01197 12.2497 6.00125 12.557 6.00125 15.0012C6.00125 17.4453 6.01197 17.7526 6.05485 18.7139C6.09773 19.6715 6.25138 20.3254 6.47293 20.9007C6.70162 21.4939 7.0125 21.9942 7.51277 22.4944C8.01303 22.9947 8.51687 23.302 9.10647 23.5343C9.6782 23.7558 10.3321 23.9095 11.2933 23.9524C12.2546 23.9952 12.5583 24.006 15.006 24.006C17.4537 24.006 17.7575 23.9952 18.7187 23.9524C19.6764 23.9095 20.3303 23.7558 20.9056 23.5343C21.4987 23.3056 21.999 22.9947 22.4993 22.4944C22.9995 21.9942 23.3068 21.4903 23.5391 20.9007C23.7607 20.329 23.9143 19.6751 23.9572 18.7139C24.0001 17.7526 24.0108 17.4489 24.0108 15.0012C24.0108 12.5535 24.0001 12.2497 23.9572 11.2885C23.9143 10.3309 23.7607 9.67695 23.5391 9.10164C23.3104 8.50847 22.9995 8.00821 22.4993 7.50794C21.999 7.00768 21.4952 6.70037 20.9056 6.4681C20.3338 6.24656 19.6799 6.09291 18.7187 6.05003C17.7539 6.01072 17.4466 6 15.0024 6Z" fill="white"/>
<path d="M15.0024 10.3809C12.4511 10.3809 10.3786 12.4498 10.3786 15.0047C10.3786 17.5597 12.4475 19.6286 15.0024 19.6286C17.5574 19.6286 19.6263 17.5597 19.6263 15.0047C19.6263 12.4498 17.5574 10.3809 15.0024 10.3809ZM15.0024 18.0027C13.3444 18.0027 12.0009 16.6592 12.0009 15.0012C12.0009 13.3431 13.3444 11.9996 15.0024 11.9996C16.6605 11.9996 18.004 13.3431 18.004 15.0012C18.004 16.6592 16.6605 18.0027 15.0024 18.0027Z" fill="white"/>
<path d="M19.8086 11.2742C20.4046 11.2742 20.8877 10.791 20.8877 10.195C20.8877 9.59905 20.4046 9.11591 19.8086 9.11591C19.2126 9.11591 18.7294 9.59905 18.7294 10.195C18.7294 10.791 19.2126 11.2742 19.8086 11.2742Z" fill="white"/>
<defs>
<linearGradient id="paint0_linear_1_139" x1="27.3751" y1="7.5" x2="6.75006" y2="27" gradientUnits="userSpaceOnUse">
<stop offset="0.111358" stop-color="#9000DC"/>
<stop offset="0.661785" stop-color="#E5514D"/>
<stop offset="0.960457" stop-color="#FEDD15"/>
</linearGradient>
</defs>
</svg>
