<svg width="30" height="30" viewBox="0 0 30 30" fill="none" xmlns="http://www.w3.org/2000/svg">
<path d="M15.0001 30C23.2843 30 30.0001 23.2843 30.0001 15C30.0001 6.71573 23.2843 0 15.0001 0C6.71579 0 6.10352e-05 6.71573 6.10352e-05 15C6.10352e-05 23.2843 6.71579 30 15.0001 30Z" fill="#0077B5"/>
<path fill-rule="evenodd" clip-rule="evenodd" d="M11.0811 7.71311C11.0811 8.64693 10.3701 9.40263 9.25818 9.40263C8.18958 9.40263 7.47851 8.64693 7.50056 7.71311C7.47851 6.73391 8.18951 6.00018 9.27949 6.00018C10.3701 6.00018 11.0598 6.73391 11.0811 7.71311ZM7.58996 21.6145V10.7373H10.9704V21.6138L7.58996 21.6145Z" fill="white"/>
<path fill-rule="evenodd" clip-rule="evenodd" d="M13.6793 14.2084C13.6793 12.8517 13.6346 11.695 13.5899 10.7386H16.5262L16.6822 12.2287H16.749C17.1939 11.539 18.3058 10.4944 20.1074 10.4944C22.3312 10.4944 23.9995 11.9626 23.9995 15.1642V21.6157H20.619V15.5878C20.619 14.1857 20.1301 13.2298 18.9068 13.2298C17.9723 13.2298 17.4166 13.8748 17.1946 14.4972C17.1052 14.72 17.0611 15.0308 17.0611 15.343V21.6157H13.6807V14.2084H13.6793Z" fill="white"/>
</svg>
