<svg width="188" height="54" viewBox="0 0 188 54" fill="none" xmlns="http://www.w3.org/2000/svg">
<rect width="188" height="54" rx="8" fill="white"/>
<path fill-rule="evenodd" clip-rule="evenodd" d="M37.7209 28.0011C37.6809 23.9501 41.0183 22.0062 41.1673 21.9099C39.2915 19.1604 36.369 18.7825 35.3277 18.74C32.8407 18.4884 30.4757 20.208 29.2122 20.208C27.9522 20.208 26.005 18.7778 23.943 18.8156C21.2326 18.8558 18.7339 20.3952 17.3366 22.8276C14.5208 27.723 16.6164 34.9787 19.361 38.9482C20.7017 40.8922 22.3005 43.076 24.4003 42.998C26.4217 42.9183 27.1866 41.6858 29.6318 41.6858C32.0763 41.6858 32.7629 42.998 34.9028 42.9561C37.0785 42.9159 38.4569 40.9743 39.7888 39.0238C41.33 36.768 41.9617 34.5866 42 34.4744C41.9517 34.4526 37.7574 32.8428 37.715 28.0029L37.7209 28.0011H37.7209ZM33.7017 16.1098C34.8155 14.7557 35.5681 12.8761 35.3625 11C33.7577 11.0655 31.8117 12.0718 30.6596 13.4241C29.6253 14.6246 28.7219 16.5379 28.9635 18.3756C30.7557 18.5156 32.5855 17.4632 33.6999 16.1121L33.7017 16.1098Z" fill="#004DE5"/>
<path d="M64.3118 27.556C64.3118 28.522 64.1588 29.401 63.8528 30.193C63.5468 30.985 63.1148 31.663 62.5568 32.227C61.9988 32.791 61.3268 33.229 60.5408 33.541C59.7608 33.847 58.8968 34 57.9488 34H53.1338V21.103H57.9488C58.8968 21.103 59.7608 21.259 60.5408 21.571C61.3268 21.877 61.9988 22.315 62.5568 22.885C63.1148 23.449 63.5468 24.127 63.8528 24.919C64.1588 25.711 64.3118 26.59 64.3118 27.556ZM62.5208 27.556C62.5208 26.764 62.4128 26.056 62.1968 25.432C61.9808 24.808 61.6748 24.28 61.2788 23.848C60.8828 23.416 60.4028 23.086 59.8388 22.858C59.2748 22.63 58.6448 22.516 57.9488 22.516H54.8798V32.587H57.9488C58.6448 32.587 59.2748 32.473 59.8388 32.245C60.4028 32.017 60.8828 31.69 61.2788 31.264C61.6748 30.832 61.9808 30.304 62.1968 29.68C62.4128 29.056 62.5208 28.348 62.5208 27.556ZM80.3331 27.556C80.3331 28.522 80.1801 29.41 79.8741 30.22C79.5681 31.024 79.1361 31.717 78.5781 32.299C78.0201 32.881 77.3481 33.334 76.5621 33.658C75.7821 33.976 74.9181 34.135 73.9701 34.135C73.0221 34.135 72.1581 33.976 71.3781 33.658C70.5981 33.334 69.9291 32.881 69.3711 32.299C68.8131 31.717 68.3811 31.024 68.0751 30.22C67.7691 29.41 67.6161 28.522 67.6161 27.556C67.6161 26.59 67.7691 25.705 68.0751 24.901C68.3811 24.091 68.8131 23.395 69.3711 22.813C69.9291 22.225 70.5981 21.769 71.3781 21.445C72.1581 21.121 73.0221 20.959 73.9701 20.959C74.9181 20.959 75.7821 21.121 76.5621 21.445C77.3481 21.769 78.0201 22.225 78.5781 22.813C79.1361 23.395 79.5681 24.091 79.8741 24.901C80.1801 25.705 80.3331 26.59 80.3331 27.556ZM78.5421 27.556C78.5421 26.764 78.4341 26.053 78.2181 25.423C78.0021 24.793 77.6961 24.262 77.3001 23.83C76.9041 23.392 76.4241 23.056 75.8601 22.822C75.2961 22.588 74.6661 22.471 73.9701 22.471C73.2801 22.471 72.6531 22.588 72.0891 22.822C71.5251 23.056 71.0421 23.392 70.6401 23.83C70.2441 24.262 69.9381 24.793 69.7221 25.423C69.5061 26.053 69.3981 26.764 69.3981 27.556C69.3981 28.348 69.5061 29.059 69.7221 29.689C69.9381 30.313 70.2441 30.844 70.6401 31.282C71.0421 31.714 71.5251 32.047 72.0891 32.281C72.6531 32.509 73.2801 32.623 73.9701 32.623C74.6661 32.623 75.2961 32.509 75.8601 32.281C76.4241 32.047 76.9041 31.714 77.3001 31.282C77.6961 30.844 78.0021 30.313 78.2181 29.689C78.4341 29.059 78.5421 28.348 78.5421 27.556ZM100.941 21.103L96.9178 34H95.3518L92.0848 24.163C92.0548 24.067 92.0248 23.965 91.9948 23.857C91.9708 23.749 91.9438 23.635 91.9138 23.515C91.8838 23.635 91.8538 23.749 91.8238 23.857C91.7938 23.965 91.7638 24.067 91.7338 24.163L88.4488 34H86.8828L82.8598 21.103H84.3088C84.4648 21.103 84.5938 21.142 84.6958 21.22C84.8038 21.298 84.8728 21.397 84.9028 21.517L87.5668 30.481C87.6088 30.643 87.6478 30.817 87.6838 31.003C87.7258 31.189 87.7648 31.387 87.8008 31.597C87.8428 31.387 87.8848 31.189 87.9268 31.003C87.9748 30.811 88.0258 30.637 88.0798 30.481L91.1128 21.517C91.1488 21.415 91.2178 21.322 91.3198 21.238C91.4278 21.148 91.5568 21.103 91.7068 21.103H92.2108C92.3668 21.103 92.4928 21.142 92.5888 21.22C92.6848 21.298 92.7568 21.397 92.8048 21.517L95.8288 30.481C95.8828 30.637 95.9308 30.805 95.9728 30.985C96.0208 31.165 96.0658 31.354 96.1078 31.552C96.1378 31.354 96.1708 31.165 96.2068 30.985C96.2428 30.805 96.2818 30.637 96.3238 30.481L98.9968 21.517C99.0268 21.409 99.0928 21.313 99.1948 21.229C99.3028 21.145 99.4318 21.103 99.5818 21.103H100.941ZM114.9 21.103V34H114.027C113.889 34 113.772 33.976 113.676 33.928C113.586 33.88 113.496 33.799 113.406 33.685L105.945 23.965C105.957 24.115 105.966 24.262 105.972 24.406C105.978 24.55 105.981 24.685 105.981 24.811V34H104.451V21.103H105.351C105.429 21.103 105.495 21.109 105.549 21.121C105.603 21.127 105.651 21.142 105.693 21.166C105.735 21.184 105.777 21.214 105.819 21.256C105.861 21.292 105.906 21.34 105.954 21.4L113.415 31.111C113.403 30.955 113.391 30.805 113.379 30.661C113.373 30.511 113.37 30.37 113.37 30.238V21.103H114.9ZM127.104 32.533V34H119.787V21.103H121.524V32.533H127.104ZM141.941 27.556C141.941 28.522 141.788 29.41 141.482 30.22C141.176 31.024 140.744 31.717 140.186 32.299C139.628 32.881 138.956 33.334 138.17 33.658C137.39 33.976 136.526 34.135 135.578 34.135C134.63 34.135 133.766 33.976 132.986 33.658C132.206 33.334 131.537 32.881 130.979 32.299C130.421 31.717 129.989 31.024 129.683 30.22C129.377 29.41 129.224 28.522 129.224 27.556C129.224 26.59 129.377 25.705 129.683 24.901C129.989 24.091 130.421 23.395 130.979 22.813C131.537 22.225 132.206 21.769 132.986 21.445C133.766 21.121 134.63 20.959 135.578 20.959C136.526 20.959 137.39 21.121 138.17 21.445C138.956 21.769 139.628 22.225 140.186 22.813C140.744 23.395 141.176 24.091 141.482 24.901C141.788 25.705 141.941 26.59 141.941 27.556ZM140.15 27.556C140.15 26.764 140.042 26.053 139.826 25.423C139.61 24.793 139.304 24.262 138.908 23.83C138.512 23.392 138.032 23.056 137.468 22.822C136.904 22.588 136.274 22.471 135.578 22.471C134.888 22.471 134.261 22.588 133.697 22.822C133.133 23.056 132.65 23.392 132.248 23.83C131.852 24.262 131.546 24.793 131.33 25.423C131.114 26.053 131.006 26.764 131.006 27.556C131.006 28.348 131.114 29.059 131.33 29.689C131.546 30.313 131.852 30.844 132.248 31.282C132.65 31.714 133.133 32.047 133.697 32.281C134.261 32.509 134.888 32.623 135.578 32.623C136.274 32.623 136.904 32.509 137.468 32.281C138.032 32.047 138.512 31.714 138.908 31.282C139.304 30.844 139.61 30.313 139.826 29.689C140.042 29.059 140.15 28.348 140.15 27.556ZM152.544 29.212L150.519 23.965C150.459 23.809 150.396 23.629 150.33 23.425C150.264 23.215 150.201 22.993 150.141 22.759C150.015 23.245 149.886 23.65 149.754 23.974L147.729 29.212H152.544ZM156.18 34H154.83C154.674 34 154.548 33.961 154.452 33.883C154.356 33.805 154.284 33.706 154.236 33.586L153.03 30.472H147.243L146.037 33.586C146.001 33.694 145.932 33.79 145.83 33.874C145.728 33.958 145.602 34 145.452 34H144.102L149.259 21.103H151.023L156.18 34ZM170.645 27.556C170.645 28.522 170.492 29.401 170.186 30.193C169.88 30.985 169.448 31.663 168.89 32.227C168.332 32.791 167.66 33.229 166.874 33.541C166.094 33.847 165.23 34 164.282 34H159.467V21.103H164.282C165.23 21.103 166.094 21.259 166.874 21.571C167.66 21.877 168.332 22.315 168.89 22.885C169.448 23.449 169.88 24.127 170.186 24.919C170.492 25.711 170.645 26.59 170.645 27.556ZM168.854 27.556C168.854 26.764 168.746 26.056 168.53 25.432C168.314 24.808 168.008 24.28 167.612 23.848C167.216 23.416 166.736 23.086 166.172 22.858C165.608 22.63 164.978 22.516 164.282 22.516H161.213V32.587H164.282C164.978 32.587 165.608 32.473 166.172 32.245C166.736 32.017 167.216 31.69 167.612 31.264C168.008 30.832 168.314 30.304 168.53 29.68C168.746 29.056 168.854 28.348 168.854 27.556Z" fill="#004DE5"/>
</svg>
