<svg width="191" height="54" viewBox="0 0 191 54" fill="none" xmlns="http://www.w3.org/2000/svg">
<path d="M23.22 11.0235C23.1375 11.0385 23.0525 11.0535 22.98 11.1035C22.6875 11.301 22.6225 11.711 22.82 12.0035L24.2 14.0635C22.0675 15.1935 20.4775 17.071 19.96 19.3235H37.64C37.1225 17.071 35.5325 15.1935 33.4 14.0635L34.78 12.0035C34.9775 11.711 34.9125 11.301 34.62 11.1035C34.325 10.906 33.9175 10.991 33.72 11.2835L32.2 13.5235C31.145 13.1385 30 12.9235 28.8 12.9235C27.6 12.9235 26.455 13.1385 25.4 13.5235L23.88 11.2835C23.7325 11.0635 23.465 10.976 23.22 11.0235ZM25.28 16.1235C25.81 16.1235 26.24 16.5535 26.24 17.0835C26.24 17.616 25.81 18.0435 25.28 18.0435C24.7475 18.0435 24.32 17.616 24.32 17.0835C24.32 16.5535 24.7475 16.1235 25.28 16.1235ZM32.32 16.1235C32.8525 16.1235 33.28 16.5535 33.28 17.0835C33.28 17.616 32.8525 18.0435 32.32 18.0435C31.79 18.0435 31.36 17.616 31.36 17.0835C31.36 16.5535 31.79 16.1235 32.32 16.1235ZM17.92 20.6035C16.86 20.6035 16 21.4635 16 22.5235V31.4835C16 32.5435 16.86 33.4035 17.92 33.4035C18.145 33.4035 18.36 33.356 18.56 33.2835V20.7235C18.36 20.651 18.145 20.6035 17.92 20.6035ZM19.84 20.6035V34.6835C19.84 35.741 20.7025 36.6035 21.76 36.6035H35.84C36.8975 36.6035 37.76 35.741 37.76 34.6835V20.6035H19.84ZM39.68 20.6035C39.455 20.6035 39.24 20.651 39.04 20.7235V33.2835C39.24 33.3535 39.455 33.4035 39.68 33.4035C40.74 33.4035 41.6 32.5435 41.6 31.4835V22.5235C41.6 21.4635 40.74 20.6035 39.68 20.6035ZM22.4 37.8835V40.4435C22.4 41.856 23.5475 43.0035 24.96 43.0035C26.3725 43.0035 27.52 41.856 27.52 40.4435V37.8835H22.4ZM30.08 37.8835V40.4435C30.08 41.856 31.2275 43.0035 32.64 43.0035C34.0525 43.0035 35.2 41.856 35.2 40.4435V37.8835H30.08Z" fill="white"/>
<path d="M66.9118 27.556C66.9118 28.522 66.7588 29.401 66.4528 30.193C66.1468 30.985 65.7148 31.663 65.1568 32.227C64.5988 32.791 63.9268 33.229 63.1408 33.541C62.3608 33.847 61.4968 34 60.5488 34H55.7338V21.103H60.5488C61.4968 21.103 62.3608 21.259 63.1408 21.571C63.9268 21.877 64.5988 22.315 65.1568 22.885C65.7148 23.449 66.1468 24.127 66.4528 24.919C66.7588 25.711 66.9118 26.59 66.9118 27.556ZM65.1208 27.556C65.1208 26.764 65.0128 26.056 64.7968 25.432C64.5808 24.808 64.2748 24.28 63.8788 23.848C63.4828 23.416 63.0028 23.086 62.4388 22.858C61.8748 22.63 61.2448 22.516 60.5488 22.516H57.4798V32.587H60.5488C61.2448 32.587 61.8748 32.473 62.4388 32.245C63.0028 32.017 63.4828 31.69 63.8788 31.264C64.2748 30.832 64.5808 30.304 64.7968 29.68C65.0128 29.056 65.1208 28.348 65.1208 27.556ZM82.9331 27.556C82.9331 28.522 82.7801 29.41 82.4741 30.22C82.1681 31.024 81.7361 31.717 81.1781 32.299C80.6201 32.881 79.9481 33.334 79.1621 33.658C78.3821 33.976 77.5181 34.135 76.5701 34.135C75.6221 34.135 74.7581 33.976 73.9781 33.658C73.1981 33.334 72.5291 32.881 71.9711 32.299C71.4131 31.717 70.9811 31.024 70.6751 30.22C70.3691 29.41 70.2161 28.522 70.2161 27.556C70.2161 26.59 70.3691 25.705 70.6751 24.901C70.9811 24.091 71.4131 23.395 71.9711 22.813C72.5291 22.225 73.1981 21.769 73.9781 21.445C74.7581 21.121 75.6221 20.959 76.5701 20.959C77.5181 20.959 78.3821 21.121 79.1621 21.445C79.9481 21.769 80.6201 22.225 81.1781 22.813C81.7361 23.395 82.1681 24.091 82.4741 24.901C82.7801 25.705 82.9331 26.59 82.9331 27.556ZM81.1421 27.556C81.1421 26.764 81.0341 26.053 80.8181 25.423C80.6021 24.793 80.2961 24.262 79.9001 23.83C79.5041 23.392 79.0241 23.056 78.4601 22.822C77.8961 22.588 77.2661 22.471 76.5701 22.471C75.8801 22.471 75.2531 22.588 74.6891 22.822C74.1251 23.056 73.6421 23.392 73.2401 23.83C72.8441 24.262 72.5381 24.793 72.3221 25.423C72.1061 26.053 71.9981 26.764 71.9981 27.556C71.9981 28.348 72.1061 29.059 72.3221 29.689C72.5381 30.313 72.8441 30.844 73.2401 31.282C73.6421 31.714 74.1251 32.047 74.6891 32.281C75.2531 32.509 75.8801 32.623 76.5701 32.623C77.2661 32.623 77.8961 32.509 78.4601 32.281C79.0241 32.047 79.5041 31.714 79.9001 31.282C80.2961 30.844 80.6021 30.313 80.8181 29.689C81.0341 29.059 81.1421 28.348 81.1421 27.556ZM103.541 21.103L99.5178 34H97.9518L94.6848 24.163C94.6548 24.067 94.6248 23.965 94.5948 23.857C94.5708 23.749 94.5438 23.635 94.5138 23.515C94.4838 23.635 94.4538 23.749 94.4238 23.857C94.3938 23.965 94.3638 24.067 94.3338 24.163L91.0488 34H89.4828L85.4598 21.103H86.9088C87.0648 21.103 87.1938 21.142 87.2958 21.22C87.4038 21.298 87.4728 21.397 87.5028 21.517L90.1668 30.481C90.2088 30.643 90.2478 30.817 90.2838 31.003C90.3258 31.189 90.3648 31.387 90.4008 31.597C90.4428 31.387 90.4848 31.189 90.5268 31.003C90.5748 30.811 90.6258 30.637 90.6798 30.481L93.7128 21.517C93.7488 21.415 93.8178 21.322 93.9198 21.238C94.0278 21.148 94.1568 21.103 94.3068 21.103H94.8108C94.9668 21.103 95.0928 21.142 95.1888 21.22C95.2848 21.298 95.3568 21.397 95.4048 21.517L98.4288 30.481C98.4828 30.637 98.5308 30.805 98.5728 30.985C98.6208 31.165 98.6658 31.354 98.7078 31.552C98.7378 31.354 98.7708 31.165 98.8068 30.985C98.8428 30.805 98.8818 30.637 98.9238 30.481L101.597 21.517C101.627 21.409 101.693 21.313 101.795 21.229C101.903 21.145 102.032 21.103 102.182 21.103H103.541ZM117.5 21.103V34H116.627C116.489 34 116.372 33.976 116.276 33.928C116.186 33.88 116.096 33.799 116.006 33.685L108.545 23.965C108.557 24.115 108.566 24.262 108.572 24.406C108.578 24.55 108.581 24.685 108.581 24.811V34H107.051V21.103H107.951C108.029 21.103 108.095 21.109 108.149 21.121C108.203 21.127 108.251 21.142 108.293 21.166C108.335 21.184 108.377 21.214 108.419 21.256C108.461 21.292 108.506 21.34 108.554 21.4L116.015 31.111C116.003 30.955 115.991 30.805 115.979 30.661C115.973 30.511 115.97 30.37 115.97 30.238V21.103H117.5ZM129.704 32.533V34H122.387V21.103H124.124V32.533H129.704ZM144.541 27.556C144.541 28.522 144.388 29.41 144.082 30.22C143.776 31.024 143.344 31.717 142.786 32.299C142.228 32.881 141.556 33.334 140.77 33.658C139.99 33.976 139.126 34.135 138.178 34.135C137.23 34.135 136.366 33.976 135.586 33.658C134.806 33.334 134.137 32.881 133.579 32.299C133.021 31.717 132.589 31.024 132.283 30.22C131.977 29.41 131.824 28.522 131.824 27.556C131.824 26.59 131.977 25.705 132.283 24.901C132.589 24.091 133.021 23.395 133.579 22.813C134.137 22.225 134.806 21.769 135.586 21.445C136.366 21.121 137.23 20.959 138.178 20.959C139.126 20.959 139.99 21.121 140.77 21.445C141.556 21.769 142.228 22.225 142.786 22.813C143.344 23.395 143.776 24.091 144.082 24.901C144.388 25.705 144.541 26.59 144.541 27.556ZM142.75 27.556C142.75 26.764 142.642 26.053 142.426 25.423C142.21 24.793 141.904 24.262 141.508 23.83C141.112 23.392 140.632 23.056 140.068 22.822C139.504 22.588 138.874 22.471 138.178 22.471C137.488 22.471 136.861 22.588 136.297 22.822C135.733 23.056 135.25 23.392 134.848 23.83C134.452 24.262 134.146 24.793 133.93 25.423C133.714 26.053 133.606 26.764 133.606 27.556C133.606 28.348 133.714 29.059 133.93 29.689C134.146 30.313 134.452 30.844 134.848 31.282C135.25 31.714 135.733 32.047 136.297 32.281C136.861 32.509 137.488 32.623 138.178 32.623C138.874 32.623 139.504 32.509 140.068 32.281C140.632 32.047 141.112 31.714 141.508 31.282C141.904 30.844 142.21 30.313 142.426 29.689C142.642 29.059 142.75 28.348 142.75 27.556ZM155.144 29.212L153.119 23.965C153.059 23.809 152.996 23.629 152.93 23.425C152.864 23.215 152.801 22.993 152.741 22.759C152.615 23.245 152.486 23.65 152.354 23.974L150.329 29.212H155.144ZM158.78 34H157.43C157.274 34 157.148 33.961 157.052 33.883C156.956 33.805 156.884 33.706 156.836 33.586L155.63 30.472H149.843L148.637 33.586C148.601 33.694 148.532 33.79 148.43 33.874C148.328 33.958 148.202 34 148.052 34H146.702L151.859 21.103H153.623L158.78 34ZM173.245 27.556C173.245 28.522 173.092 29.401 172.786 30.193C172.48 30.985 172.048 31.663 171.49 32.227C170.932 32.791 170.26 33.229 169.474 33.541C168.694 33.847 167.83 34 166.882 34H162.067V21.103H166.882C167.83 21.103 168.694 21.259 169.474 21.571C170.26 21.877 170.932 22.315 171.49 22.885C172.048 23.449 172.48 24.127 172.786 24.919C173.092 25.711 173.245 26.59 173.245 27.556ZM171.454 27.556C171.454 26.764 171.346 26.056 171.13 25.432C170.914 24.808 170.608 24.28 170.212 23.848C169.816 23.416 169.336 23.086 168.772 22.858C168.208 22.63 167.578 22.516 166.882 22.516H163.813V32.587H166.882C167.578 32.587 168.208 32.473 168.772 32.245C169.336 32.017 169.816 31.69 170.212 31.264C170.608 30.832 170.914 30.304 171.13 29.68C171.346 29.056 171.454 28.348 171.454 27.556Z" fill="white"/>
<rect x="0.5" y="0.5" width="189.6" height="53" rx="7.5" stroke="white"/>
</svg>
