<svg width="888" height="37" viewBox="0 0 888 37" fill="none" xmlns="http://www.w3.org/2000/svg">
<path d="M22.32 5.8877C22.3395 5.98535 21.9782 6.56152 21.236 7.61621C20.1032 9.20801 19.1999 10.5459 18.5261 11.6299C17.862 12.7139 16.6169 14.7842 14.7907 17.8408C13.6774 19.6963 12.9548 20.8779 12.6227 21.3857C11.7048 22.7432 11.153 23.7881 10.9675 24.5205C10.821 24.9893 10.4792 25.3701 9.94208 25.6631C9.41473 25.9561 8.78485 26.1025 8.05243 26.1025C7.73016 26.1025 7.42255 25.8584 7.12958 25.3701C6.84637 24.8818 6.46063 23.959 5.97235 22.6016C5.36688 20.9707 4.52216 18.793 3.43817 16.0684C1.18231 10.4336 0.0543823 7.51855 0.0543823 7.32324C0.0543823 6.97168 0.220398 6.49805 0.552429 5.90234C0.894226 5.30664 1.37274 5.00879 1.98798 5.00879C2.47626 5.00879 2.91083 5.18945 3.29169 5.55078C3.67255 5.90234 4.01923 6.86914 4.33173 8.45117C4.54657 9.57422 5.23993 11.6445 6.4118 14.6621C7.59344 17.6699 8.5163 19.8965 9.18036 21.3418C9.32684 21.127 9.65887 20.5508 10.1765 19.6133C10.2936 19.4082 10.3718 19.2764 10.4108 19.2178C11.7585 17.0596 12.8815 15.1211 13.78 13.4023C15.4206 10.2578 16.7975 7.91406 17.9108 6.37109C19.0339 4.82813 19.9665 4.05664 20.7087 4.05664C21.7927 4.05664 22.3347 4.59375 22.3347 5.66797V5.78516C22.3347 5.82422 22.3298 5.8584 22.32 5.8877ZM31.4247 4.23242C31.4247 4.92578 31.1122 5.53613 30.4872 6.06348C29.8622 6.58105 29.3202 6.83984 28.8612 6.83984C28.2752 6.83984 27.7528 6.5957 27.2938 6.10742C26.8446 5.61914 26.62 5.13086 26.62 4.64258C26.62 3.93945 26.8446 3.37305 27.2938 2.94336C27.743 2.50391 28.3875 2.28418 29.2274 2.28418C29.8817 2.28418 30.409 2.47949 30.8094 2.87012C31.2196 3.25098 31.4247 3.70508 31.4247 4.23242ZM24.3495 16.2734V16.2881C24.662 14.5107 24.8182 13.4951 24.8182 13.2412C24.8182 12.5186 24.9745 11.9131 25.287 11.4248C25.6092 10.9365 26.0536 10.6924 26.62 10.6924C27.284 10.6924 27.8016 10.8486 28.1727 11.1611C28.5438 11.4736 28.7293 11.8252 28.7293 12.2158C28.7293 12.6064 28.5487 13.4121 28.1874 14.6328L28.0995 14.9551C27.5624 16.8398 27.2401 18.3779 27.1327 19.5693C27.0252 20.7607 26.9715 21.7227 26.9715 22.4551C26.9715 23.0508 27.0741 23.8467 27.2791 24.8428C27.3084 25.0186 27.3231 25.165 27.3231 25.2822C27.3231 25.5068 27.1082 25.8096 26.6786 26.1904C26.2586 26.5713 25.8045 26.7617 25.3163 26.7617C24.0272 26.7617 23.3827 25.7852 23.3827 23.832C23.3827 22.1719 23.617 20.1504 24.0858 17.7676C24.1834 17.2402 24.2713 16.7422 24.3495 16.2734ZM40.4121 22.2793C40.3731 21.752 39.5332 21.1074 37.8926 20.3457C35.8809 19.3789 34.5967 18.5488 34.04 17.8555C33.4834 17.1523 33.2051 16.3906 33.2051 15.5703C33.2051 13.8418 34.1719 12.333 36.1055 11.0439C38.0488 9.74512 39.8604 9.0957 41.54 9.0957C43.1904 9.0957 44.0156 9.81348 44.0156 11.249C44.0156 11.6299 43.8252 11.9717 43.4443 12.2744C43.0732 12.5771 42.7559 12.7285 42.4922 12.7285C42.3848 12.7285 42.1943 12.6602 41.9209 12.5234C41.6475 12.3867 41.4375 12.3184 41.291 12.3184C40.4219 12.3184 39.4649 12.6113 38.4199 13.1973C37.375 13.7832 36.8525 14.4668 36.8525 15.248C36.8525 15.6289 37.0381 16 37.4092 16.3613C37.7803 16.7129 38.5371 17.1572 39.6797 17.6943C41.3691 18.4951 42.4824 19.2178 43.0195 19.8623C43.5566 20.5068 43.8252 21.2197 43.8252 22.001C43.8252 23.4268 42.8584 24.6182 40.9248 25.5752C39.001 26.5225 36.8379 26.9961 34.4356 26.9961C32.668 26.9961 31.7842 26.3564 31.7842 25.0771C31.7842 24.6084 31.9697 24.208 32.3408 23.876C32.7119 23.5439 33.127 23.3779 33.5859 23.3779C33.7715 23.3779 34.0596 23.4463 34.4502 23.583C34.8408 23.7295 35.2022 23.8027 35.5342 23.8027C36.4522 23.8027 37.4141 23.6562 38.4199 23.3633C39.4258 23.0703 40.0899 22.709 40.4121 22.2793ZM55.9035 4.23242C55.9035 4.92578 55.591 5.53613 54.966 6.06348C54.341 6.58105 53.799 6.83984 53.34 6.83984C52.7541 6.83984 52.2316 6.5957 51.7726 6.10742C51.3234 5.61914 51.0988 5.13086 51.0988 4.64258C51.0988 3.93945 51.3234 3.37305 51.7726 2.94336C52.2218 2.50391 52.8664 2.28418 53.7062 2.28418C54.3605 2.28418 54.8879 2.47949 55.2882 2.87012C55.6984 3.25098 55.9035 3.70508 55.9035 4.23242ZM48.8283 16.2734V16.2881C49.1408 14.5107 49.297 13.4951 49.297 13.2412C49.297 12.5186 49.4533 11.9131 49.7658 11.4248C50.0881 10.9365 50.5324 10.6924 51.0988 10.6924C51.7629 10.6924 52.2804 10.8486 52.6515 11.1611C53.0226 11.4736 53.2082 11.8252 53.2082 12.2158C53.2082 12.6064 53.0275 13.4121 52.6662 14.6328L52.5783 14.9551C52.0412 16.8398 51.7189 18.3779 51.6115 19.5693C51.5041 20.7607 51.4504 21.7227 51.4504 22.4551C51.4504 23.0508 51.5529 23.8467 51.758 24.8428C51.7873 25.0186 51.8019 25.165 51.8019 25.2822C51.8019 25.5068 51.5871 25.8096 51.1574 26.1904C50.7375 26.5713 50.2834 26.7617 49.7951 26.7617C48.506 26.7617 47.8615 25.7852 47.8615 23.832C47.8615 22.1719 48.0959 20.1504 48.5646 17.7676C48.6623 17.2402 48.7502 16.7422 48.8283 16.2734ZM63.9681 14.1055C63.8802 14.1055 63.6019 15.1943 63.1331 17.3721C62.6741 19.5498 62.4447 20.8682 62.4447 21.3271C62.4447 22.1279 62.5277 22.6895 62.6937 23.0117C62.8695 23.3242 63.1527 23.4805 63.5433 23.4805C64.0902 23.4805 64.6126 23.3877 65.1107 23.2021C65.6185 23.0068 66.2825 22.5771 67.1029 21.9131C67.6107 21.4932 68.0404 21.2832 68.3919 21.2832C68.6751 21.2832 68.8997 21.3662 69.0658 21.5322C69.2415 21.6885 69.3294 21.874 69.3294 22.0889C69.3294 22.9482 68.6361 23.9248 67.2493 25.0186C65.8626 26.1025 64.3978 26.6445 62.8548 26.6445C61.5658 26.6445 60.5794 26.2637 59.8958 25.502C59.222 24.7402 58.8851 23.6465 58.8851 22.2207C58.8851 20.9023 59.3783 18.2705 60.3646 14.3252C59.7396 14.3936 59.305 14.4277 59.0609 14.4277H58.7533C58.304 14.4277 57.845 14.2812 57.3763 13.9883C56.9173 13.6953 56.6878 13.2266 56.6878 12.582C56.6878 11.7617 57.1517 11.3516 58.0794 11.3516L61.2142 11.2344C61.6243 10.0527 62.0589 8.50488 62.5179 6.59082C62.7913 5.39941 63.4115 4.80371 64.3783 4.80371C64.9154 4.80371 65.3353 4.96973 65.638 5.30176C65.9408 5.62402 66.0921 5.98535 66.0921 6.38574C66.0921 6.54199 65.6771 8.05078 64.847 10.9121C67.9525 10.6387 69.6566 10.502 69.9593 10.502C70.4769 10.502 70.8187 10.5801 70.9847 10.7363C71.1507 10.8828 71.2337 11.1709 71.2337 11.6006C71.2337 12.4697 70.4964 13.0215 69.0218 13.2559L63.9681 14.1055ZM97.4997 20.6387C96.5622 22.3477 95.4733 23.7051 94.2331 24.7109C93.0026 25.7168 91.7526 26.2197 90.4831 26.2197C89.7311 26.2197 88.9694 25.8242 88.1979 25.0332C87.4362 24.2422 87.0553 23.0264 87.0553 21.3857C87.0553 20.2236 87.3483 18.4707 87.9342 16.127C88.442 14.1934 88.6959 12.7236 88.6959 11.7178C89.0866 10.8975 89.6969 10.4873 90.527 10.4873C91.0934 10.4873 91.5426 10.6777 91.8747 11.0586C92.2165 11.4297 92.3874 11.8057 92.3874 12.1865C92.3874 12.8799 92.1432 13.8662 91.6549 15.1455C91.3717 15.9072 91.0641 16.9863 90.7321 18.3828C90.4098 19.7695 90.2487 20.6582 90.2487 21.0488C90.2487 22.3477 90.5172 22.9971 91.0543 22.9971C91.904 22.9971 93.0514 22.1816 94.4967 20.5508C95.942 18.9199 96.8844 17.25 97.3239 15.541C97.7633 13.8711 98.154 12.7773 98.4958 12.2598C98.8375 11.7422 99.3209 11.4834 99.9459 11.4834C100.962 11.4834 101.469 12.0498 101.469 13.1826C101.469 13.3486 101.386 13.6807 101.22 14.1787C100.644 15.9072 100.356 17.8555 100.356 20.0234C100.356 22.5625 100.786 24.0811 101.645 24.5791C101.928 24.7451 102.07 24.9502 102.07 25.1943C102.07 25.5459 101.821 25.8779 101.323 26.1904C100.825 26.5029 100.351 26.6592 99.902 26.6592C99.1305 26.6592 98.5348 26.1172 98.1149 25.0332C97.7047 23.9395 97.4997 22.4746 97.4997 20.6387ZM113.929 22.2793C113.889 21.752 113.05 21.1074 111.409 20.3457C109.397 19.3789 108.113 18.5488 107.556 17.8555C107 17.1523 106.721 16.3906 106.721 15.5703C106.721 13.8418 107.688 12.333 109.622 11.0439C111.565 9.74512 113.377 9.0957 115.056 9.0957C116.707 9.0957 117.532 9.81348 117.532 11.249C117.532 11.6299 117.342 11.9717 116.961 12.2744C116.59 12.5771 116.272 12.7285 116.009 12.7285C115.901 12.7285 115.711 12.6602 115.437 12.5234C115.164 12.3867 114.954 12.3184 114.807 12.3184C113.938 12.3184 112.981 12.6113 111.936 13.1973C110.891 13.7832 110.369 14.4668 110.369 15.248C110.369 15.6289 110.554 16 110.926 16.3613C111.297 16.7129 112.054 17.1572 113.196 17.6943C114.886 18.4951 115.999 19.2178 116.536 19.8623C117.073 20.5068 117.342 21.2197 117.342 22.001C117.342 23.4268 116.375 24.6182 114.441 25.5752C112.517 26.5225 110.354 26.9961 107.952 26.9961C106.184 26.9961 105.301 26.3564 105.301 25.0771C105.301 24.6084 105.486 24.208 105.857 23.876C106.228 23.5439 106.643 23.3779 107.102 23.3779C107.288 23.3779 107.576 23.4463 107.967 23.583C108.357 23.7295 108.719 23.8027 109.051 23.8027C109.969 23.8027 110.93 23.6562 111.936 23.3633C112.942 23.0703 113.606 22.709 113.929 22.2793ZM140.883 14.1055C140.795 14.1055 140.517 15.1943 140.048 17.3721C139.589 19.5498 139.359 20.8682 139.359 21.3271C139.359 22.1279 139.443 22.6895 139.609 23.0117C139.784 23.3242 140.068 23.4805 140.458 23.4805C141.005 23.4805 141.527 23.3877 142.026 23.2021C142.533 23.0068 143.197 22.5771 144.018 21.9131C144.526 21.4932 144.955 21.2832 145.307 21.2832C145.59 21.2832 145.815 21.3662 145.981 21.5322C146.156 21.6885 146.244 21.874 146.244 22.0889C146.244 22.9482 145.551 23.9248 144.164 25.0186C142.777 26.1025 141.313 26.6445 139.77 26.6445C138.481 26.6445 137.494 26.2637 136.811 25.502C136.137 24.7402 135.8 23.6465 135.8 22.2207C135.8 20.9023 136.293 18.2705 137.279 14.3252C136.654 14.3936 136.22 14.4277 135.976 14.4277H135.668C135.219 14.4277 134.76 14.2812 134.291 13.9883C133.832 13.6953 133.603 13.2266 133.603 12.582C133.603 11.7617 134.067 11.3516 134.994 11.3516L138.129 11.2344C138.539 10.0527 138.974 8.50488 139.433 6.59082C139.706 5.39941 140.326 4.80371 141.293 4.80371C141.83 4.80371 142.25 4.96973 142.553 5.30176C142.856 5.62402 143.007 5.98535 143.007 6.38574C143.007 6.54199 142.592 8.05078 141.762 10.9121C144.867 10.6387 146.571 10.502 146.874 10.502C147.392 10.502 147.734 10.5801 147.9 10.7363C148.066 10.8828 148.149 11.1709 148.149 11.6006C148.149 12.4697 147.411 13.0215 145.937 13.2559L140.883 14.1055ZM164.343 18.5732C163.689 20.8584 162.444 22.7871 160.608 24.3594C158.782 25.9219 156.955 26.7031 155.129 26.7031C153.684 26.7031 152.492 26.1758 151.555 25.1211C150.617 24.0566 150.149 22.7529 150.149 21.21C150.149 18.6904 151.008 16.21 152.727 13.7686C154.446 11.3271 156.531 10.1064 158.982 10.1064C160.652 10.1064 162.004 10.7266 163.039 11.9668C164.074 13.1973 164.592 14.667 164.592 16.376C164.592 17.1182 164.509 17.8457 164.343 18.5586V18.5732ZM156.726 13.9443C156.042 14.5498 155.373 15.5166 154.719 16.8447C154.065 18.1729 153.738 19.5059 153.738 20.8438C153.738 21.6543 153.884 22.3232 154.177 22.8506C154.48 23.3779 154.875 23.6416 155.364 23.6416C156.574 23.6416 157.834 22.9238 159.143 21.4883C160.451 20.0527 161.106 18.4414 161.106 16.6543C161.106 15.6484 160.891 14.8232 160.461 14.1787C160.041 13.5244 159.45 13.1973 158.689 13.1973C157.966 13.1973 157.317 13.4463 156.741 13.9443H156.726ZM179.351 21.1074C176.822 24.6914 174.278 26.4834 171.719 26.4834C170.684 26.4834 169.849 26.0781 169.214 25.2676C168.58 24.4473 168.262 23.4072 168.262 22.1475C168.262 19.5986 169.302 17.0645 171.382 14.5449C173.472 12.0254 175.586 10.7656 177.725 10.7656C178.956 10.7656 179.83 11.0879 180.347 11.7324C181.08 8.5293 181.514 6.52734 181.651 5.72656C181.944 4.24219 182.188 3.25586 182.383 2.76758C182.579 2.2793 182.876 1.90332 183.277 1.63965C183.677 1.36621 184.024 1.22949 184.317 1.22949C184.815 1.22949 185.196 1.43457 185.459 1.84473C185.723 2.25488 185.855 2.77246 185.855 3.39746C185.855 3.6709 185.64 4.45703 185.21 5.75586C184.507 7.86523 183.853 10.4141 183.248 13.4023C182.652 16.3906 182.354 18.7686 182.354 20.5361C182.354 22.2256 182.725 23.0703 183.467 23.0703C183.848 23.0703 184.253 22.9678 184.683 22.7627C185.113 22.5674 185.415 22.4697 185.591 22.4697C186.07 22.4697 186.309 22.748 186.309 23.3047C186.309 23.9785 185.821 24.6523 184.844 25.3262C183.877 25.9902 182.959 26.3223 182.09 26.3223C181.153 26.3223 180.43 25.8193 179.922 24.8135C179.415 23.8076 179.224 22.5723 179.351 21.1074ZM177.725 13.5928C176.446 13.5928 175.108 14.5693 173.711 16.5225C172.325 18.4756 171.631 20.2627 171.631 21.8838C171.631 22.8311 171.983 23.3047 172.686 23.3047C173.877 23.3047 175.298 22.2451 176.949 20.126C178.599 18.0068 179.424 16.332 179.424 15.1016C179.424 14.7305 179.268 14.3887 178.956 14.0762C178.643 13.7539 178.233 13.5928 177.725 13.5928ZM200.394 21.0928C197.826 24.4814 195.345 26.1758 192.953 26.1758C192.074 26.1758 191.317 25.8291 190.682 25.1357C190.047 24.4424 189.73 23.5586 189.73 22.4844C189.73 19.8965 190.882 17.1426 193.187 14.2227C195.492 11.293 197.816 9.82812 200.16 9.82812C201.351 9.82812 202.132 10.4287 202.504 11.6299C203.627 11.6299 204.188 12.0596 204.188 12.9189C204.188 13.3291 204.081 14.0713 203.866 15.1455C203.475 17.1572 203.28 18.7637 203.28 19.9648C203.28 21.2148 203.363 22.0938 203.529 22.6016C203.705 23.1094 203.832 23.4414 203.91 23.5977C203.988 23.7539 204.222 23.9199 204.613 24.0957C205.004 24.2812 205.199 24.54 205.199 24.8721C205.199 25.3701 204.945 25.7852 204.437 26.1172C203.939 26.4492 203.417 26.6152 202.87 26.6152C201.034 26.6152 200.209 24.7744 200.394 21.0928ZM199.515 12.9629C198.529 12.9629 197.245 14.0566 195.663 16.2441C194.09 18.4219 193.304 20.2725 193.304 21.7959C193.304 22.5967 193.47 22.9971 193.802 22.9971C194.955 22.9971 196.371 21.9766 198.05 19.9355C199.74 17.8848 200.585 16.0928 200.585 14.5596C200.585 14.0713 200.472 13.6855 200.248 13.4023C200.033 13.1094 199.789 12.9629 199.515 12.9629ZM223.635 17.3721C223.478 19.7451 223.2 22.0498 222.8 24.2861C222.409 26.5127 221.828 28.5342 221.056 30.3506C220.295 32.167 219.469 33.4023 218.581 34.0566C217.702 34.7207 216.652 35.0527 215.431 35.0527C214.123 35.0527 212.868 34.8037 211.667 34.3057H211.681C210.646 33.876 209.743 33.2998 208.971 32.5771C208.21 31.8545 207.829 31.2441 207.829 30.7461C207.829 30.2871 207.941 29.9209 208.166 29.6475C208.4 29.374 208.703 29.2373 209.074 29.2373C209.396 29.2373 209.665 29.374 209.88 29.6475C211.13 31.2588 212.946 32.0645 215.329 32.0645C216.296 32.0645 217.228 31.0537 218.127 29.0322C219.025 27.0107 219.592 24.584 219.826 21.752C216.808 24.1348 214.484 25.3262 212.853 25.3262C211.799 25.3262 210.964 24.9062 210.348 24.0664C209.733 23.2266 209.426 22.2158 209.426 21.0342C209.426 19.8525 209.699 18.1387 210.246 15.8926C210.803 13.6367 211.271 12.2402 211.652 11.7031C212.043 11.1562 212.673 10.8828 213.542 10.8828C214.011 10.8828 214.372 11.0879 214.626 11.498C214.88 11.8984 215.007 12.3428 215.007 12.8311C215.007 12.9775 214.655 13.8027 213.952 15.3066C213.093 17.1426 212.663 18.7246 212.663 20.0527C212.663 20.7363 212.756 21.2588 212.941 21.6201C213.136 21.9717 213.337 22.1475 213.542 22.1475C214.011 22.1475 214.577 22.0059 215.241 21.7227C215.915 21.4395 216.701 20.9512 217.599 20.2578C218.508 19.5547 219.094 19.0225 219.357 18.6611C219.621 18.2998 219.831 17.8359 219.987 17.2695C220.143 16.6934 220.265 15.4336 220.353 13.4902C220.402 12.3574 220.456 11.6445 220.514 11.3516C220.583 11.0586 220.759 10.79 221.042 10.5459C221.325 10.3018 221.706 10.1797 222.184 10.1797C222.829 10.1797 223.283 10.3164 223.547 10.5898C223.82 10.8633 223.957 11.5078 223.957 12.5234L223.635 17.3721ZM252.391 21.0928C249.822 24.4814 247.342 26.1758 244.949 26.1758C244.07 26.1758 243.314 25.8291 242.679 25.1357C242.044 24.4424 241.727 23.5586 241.727 22.4844C241.727 19.8965 242.879 17.1426 245.184 14.2227C247.488 11.293 249.813 9.82812 252.156 9.82812C253.348 9.82812 254.129 10.4287 254.5 11.6299C255.623 11.6299 256.185 12.0596 256.185 12.9189C256.185 13.3291 256.077 14.0713 255.862 15.1455C255.472 17.1572 255.276 18.7637 255.276 19.9648C255.276 21.2148 255.359 22.0938 255.525 22.6016C255.701 23.1094 255.828 23.4414 255.906 23.5977C255.984 23.7539 256.219 23.9199 256.609 24.0957C257 24.2812 257.195 24.54 257.195 24.8721C257.195 25.3701 256.941 25.7852 256.434 26.1172C255.936 26.4492 255.413 26.6152 254.866 26.6152C253.03 26.6152 252.205 24.7744 252.391 21.0928ZM251.512 12.9629C250.525 12.9629 249.241 14.0566 247.659 16.2441C246.087 18.4219 245.301 20.2725 245.301 21.7959C245.301 22.5967 245.467 22.9971 245.799 22.9971C246.951 22.9971 248.367 21.9766 250.047 19.9355C251.736 17.8848 252.581 16.0928 252.581 14.5596C252.581 14.0713 252.469 13.6855 252.244 13.4023C252.029 13.1094 251.785 12.9629 251.512 12.9629ZM273.8 23.8613C273.331 22.9824 272.99 21.3418 272.775 18.9395C272.56 16.4395 272.081 15.1895 271.339 15.1895C270.636 15.1895 269.42 16.4932 267.692 19.1006C265.963 21.6982 264.899 23.6172 264.498 24.8574C264.41 25.2285 264.244 25.5361 264 25.7803C263.766 26.0244 263.531 26.1465 263.297 26.1465C261.813 26.1465 261.071 25.4678 261.071 24.1104C261.071 23.6514 261.217 22.6064 261.51 20.9756C261.891 18.8662 262.081 16.2881 262.081 13.2412C262.081 12.7822 262.281 12.2939 262.682 11.7764C263.082 11.249 263.507 10.9854 263.956 10.9854C264.523 10.9854 264.957 11.127 265.26 11.4102C265.563 11.6934 265.714 12.4453 265.714 13.666C265.714 14.5938 265.436 16.3906 264.879 19.0566C266.998 14.0957 269.362 11.6152 271.969 11.6152C274.235 11.6152 275.563 13.3975 275.953 16.9619C276.344 20.5947 276.793 22.4111 277.301 22.4111C277.526 22.4111 277.784 22.3623 278.077 22.2646C278.429 22.1475 278.707 22.0889 278.912 22.0889C279.381 22.0889 279.615 22.3623 279.615 22.9092C279.615 23.4072 279.293 23.9395 278.649 24.5059C278.004 25.0625 277.194 25.3408 276.217 25.3408C275.084 25.3408 274.274 24.8477 273.785 23.8613H273.8ZM293.276 21.1074C290.746 24.6914 288.203 26.4834 285.644 26.4834C284.609 26.4834 283.774 26.0781 283.139 25.2676C282.504 24.4473 282.187 23.4072 282.187 22.1475C282.187 19.5986 283.227 17.0645 285.307 14.5449C287.397 12.0254 289.511 10.7656 291.65 10.7656C292.88 10.7656 293.754 11.0879 294.272 11.7324C295.004 8.5293 295.439 6.52734 295.576 5.72656C295.869 4.24219 296.113 3.25586 296.308 2.76758C296.503 2.2793 296.801 1.90332 297.202 1.63965C297.602 1.36621 297.949 1.22949 298.242 1.22949C298.74 1.22949 299.121 1.43457 299.384 1.84473C299.648 2.25488 299.78 2.77246 299.78 3.39746C299.78 3.6709 299.565 4.45703 299.135 5.75586C298.432 7.86523 297.778 10.4141 297.172 13.4023C296.577 16.3906 296.279 18.7686 296.279 20.5361C296.279 22.2256 296.65 23.0703 297.392 23.0703C297.773 23.0703 298.178 22.9678 298.608 22.7627C299.038 22.5674 299.34 22.4697 299.516 22.4697C299.995 22.4697 300.234 22.748 300.234 23.3047C300.234 23.9785 299.746 24.6523 298.769 25.3262C297.802 25.9902 296.884 26.3223 296.015 26.3223C295.078 26.3223 294.355 25.8193 293.847 24.8135C293.339 23.8076 293.149 22.5723 293.276 21.1074ZM291.65 13.5928C290.371 13.5928 289.033 14.5693 287.636 16.5225C286.249 18.4756 285.556 20.2627 285.556 21.8838C285.556 22.8311 285.908 23.3047 286.611 23.3047C287.802 23.3047 289.223 22.2451 290.873 20.126C292.524 18.0068 293.349 16.332 293.349 15.1016C293.349 14.7305 293.193 14.3887 292.88 14.0762C292.568 13.7539 292.158 13.5928 291.65 13.5928ZM319.351 11.7764C320.299 6.16113 320.977 2.83594 321.387 1.80078C321.807 0.765625 322.535 0.248047 323.57 0.248047C324.371 0.248047 324.771 0.956055 324.771 2.37207C324.771 3.33887 324.371 5.3457 323.57 8.39258C323.15 9.89648 322.642 12.1719 322.047 15.2188C323.258 13.6074 324.576 12.3037 326.002 11.3076C327.437 10.3115 328.717 9.81348 329.84 9.81348C330.758 9.81348 331.519 10.209 332.125 11C332.74 11.7812 333.048 12.7041 333.048 13.7686C333.048 16.7764 331.89 19.6035 329.576 22.25C327.271 24.8965 324.82 26.2197 322.222 26.2197C321.441 26.2197 320.714 26.0098 320.04 25.5898C319.366 25.1602 318.985 24.6133 318.897 23.9492C318.858 23.5879 318.785 23.3486 318.677 23.2314C318.57 23.1143 318.458 22.9873 318.341 22.8506C318.057 22.5576 317.916 22.1475 317.916 21.6201C317.916 21.0146 318.067 19.7549 318.37 17.8408L319.351 11.7764ZM321.08 22.1768C321.49 22.8604 321.949 23.2021 322.457 23.2021C323.375 23.2021 324.39 22.7822 325.504 21.9424C326.627 21.0928 327.598 19.9014 328.419 18.3682C329.249 16.835 329.664 15.5605 329.664 14.5449C329.664 13.5781 329.512 13.0947 329.21 13.0947C327.657 13.0947 325.914 14.2324 323.98 16.5078C322.047 18.7734 321.08 20.6631 321.08 22.1768ZM349.989 20.9609C349.989 21.9766 349.135 23.1924 347.426 24.6084C345.717 26.0146 343.788 26.7178 341.64 26.7178C339.989 26.7178 338.69 26.2002 337.743 25.165C336.796 24.1201 336.322 22.6699 336.322 20.8145C336.322 18.0801 337.289 15.5166 339.223 13.124C341.156 10.7314 343.222 9.53516 345.419 9.53516C346.513 9.53516 347.391 9.88184 348.056 10.5752C348.72 11.2686 349.052 12.0938 349.052 13.0508C349.052 14.75 348.236 16.3711 346.605 17.9141C344.974 19.4473 342.885 20.5068 340.336 21.0928C340.043 21.1611 339.896 21.3369 339.896 21.6201C339.896 22.0889 340.101 22.5381 340.512 22.9678C340.932 23.3877 341.488 23.5977 342.182 23.5977C344.144 23.5977 346.093 22.5869 348.026 20.5654C348.397 20.1748 348.759 19.9795 349.11 19.9795C349.696 19.9795 349.989 20.3066 349.989 20.9609ZM340.16 18.3682C341.703 18.0557 343.06 17.3965 344.232 16.3906C345.414 15.3848 346.005 14.4717 346.005 13.6514C346.005 13.3291 345.912 13.0605 345.726 12.8457C345.551 12.6211 345.321 12.5088 345.038 12.5088C344.188 12.5088 343.246 13.1338 342.211 14.3838C341.176 15.6338 340.492 16.9619 340.16 18.3682ZM371.026 24.96C370.86 25.6436 370.694 26.6787 370.528 28.0654L369.824 33.8223C369.707 34.7598 369.478 35.4092 369.136 35.7705C368.804 36.1318 368.394 36.3125 367.905 36.3125C367.466 36.3125 367.046 36.1465 366.646 35.8145C366.255 35.4922 366.06 35.1309 366.06 34.7305C366.06 33.9395 366.182 33.0264 366.426 31.9912C367.881 26.1807 368.677 20.1504 368.814 13.9004V13.6074C368.814 12.2988 368.848 11.4297 368.916 11C368.994 10.5605 369.204 10.1748 369.546 9.84277C369.898 9.51074 370.391 9.34473 371.026 9.34473C372.09 9.34473 372.622 10.1602 372.622 11.791C372.622 12.4551 372.5 13.583 372.256 15.1748L372.11 16.1855C373.223 14.3301 374.546 12.792 376.079 11.5713C377.613 10.3408 378.985 9.72559 380.196 9.72559C381.289 9.72559 382.217 10.1162 382.979 10.8975C383.75 11.6787 384.136 12.6602 384.136 13.8418C384.136 16.9961 382.91 19.8672 380.459 22.4551C378.018 25.0332 375.601 26.3223 373.208 26.3223C372.075 26.3223 371.348 25.8682 371.026 24.96ZM379.624 13.0508C378.433 13.0508 376.885 14.2129 374.981 16.5371C373.086 18.8613 372.139 20.6875 372.139 22.0156C372.139 22.3574 372.305 22.665 372.637 22.9385C372.979 23.2021 373.374 23.334 373.823 23.334C375.064 23.334 376.485 22.3623 378.086 20.4189C379.697 18.4658 380.503 16.5811 380.503 14.7646C380.503 14.1592 380.41 13.7246 380.225 13.4609C380.039 13.1875 379.839 13.0508 379.624 13.0508ZM398.587 21.0928C396.019 24.4814 393.538 26.1758 391.146 26.1758C390.267 26.1758 389.51 25.8291 388.875 25.1357C388.241 24.4424 387.923 23.5586 387.923 22.4844C387.923 19.8965 389.076 17.1426 391.38 14.2227C393.685 11.293 396.009 9.82812 398.353 9.82812C399.544 9.82812 400.326 10.4287 400.697 11.6299C401.82 11.6299 402.381 12.0596 402.381 12.9189C402.381 13.3291 402.274 14.0713 402.059 15.1455C401.668 17.1572 401.473 18.7637 401.473 19.9648C401.473 21.2148 401.556 22.0938 401.722 22.6016C401.898 23.1094 402.025 23.4414 402.103 23.5977C402.181 23.7539 402.415 23.9199 402.806 24.0957C403.197 24.2812 403.392 24.54 403.392 24.8721C403.392 25.3701 403.138 25.7852 402.63 26.1172C402.132 26.4492 401.61 26.6152 401.063 26.6152C399.227 26.6152 398.402 24.7744 398.587 21.0928ZM397.708 12.9629C396.722 12.9629 395.438 14.0566 393.856 16.2441C392.284 18.4219 391.497 20.2725 391.497 21.7959C391.497 22.5967 391.663 22.9971 391.995 22.9971C393.148 22.9971 394.564 21.9766 396.244 19.9355C397.933 17.8848 398.778 16.0928 398.778 14.5596C398.778 14.0713 398.665 13.6855 398.441 13.4023C398.226 13.1094 397.982 12.9629 397.708 12.9629ZM411.354 18.7344L411.603 18.2656C412.785 15.8926 414.054 13.9688 415.412 12.4941C416.779 11.0098 418.112 10.2676 419.411 10.2676C420.407 10.2676 421.217 10.541 421.842 11.0879C422.477 11.6348 422.794 12.2842 422.794 13.0361C422.794 13.5049 422.687 13.9102 422.472 14.252C422.257 14.584 421.96 14.75 421.579 14.75C420.973 14.75 420.421 14.501 419.923 14.0029C419.572 13.6807 419.293 13.5195 419.088 13.5195C418.356 13.5195 417.13 14.6572 415.412 16.9326C413.693 19.208 412.658 21.7666 412.306 24.6084C412.199 25.4287 411.96 26 411.588 26.3223C411.217 26.6543 410.714 26.8203 410.08 26.8203C409.406 26.8203 408.927 26.4395 408.644 25.6777C408.361 24.9062 408.219 23.6514 408.219 21.9131C408.219 21.2002 408.239 20.2383 408.278 19.0273C408.317 17.8848 408.429 16.4883 408.615 14.8379C408.664 14.4082 408.698 14.0713 408.717 13.8271C408.805 12.8701 408.903 12.2158 409.01 11.8643C409.127 11.5029 409.391 11.166 409.801 10.8535C410.211 10.541 410.666 10.3848 411.164 10.3848C411.691 10.3848 412.091 10.5361 412.365 10.8389C412.638 11.1416 412.775 11.4736 412.775 11.835C412.775 12.2939 412.555 13.2461 412.116 14.6914C411.96 15.1895 411.828 15.7852 411.72 16.4785L411.354 18.7344ZM431.811 14.1055C431.723 14.1055 431.445 15.1943 430.976 17.3721C430.517 19.5498 430.288 20.8682 430.288 21.3271C430.288 22.1279 430.371 22.6895 430.537 23.0117C430.713 23.3242 430.996 23.4805 431.386 23.4805C431.933 23.4805 432.456 23.3877 432.954 23.2021C433.462 23.0068 434.126 22.5771 434.946 21.9131C435.454 21.4932 435.883 21.2832 436.235 21.2832C436.518 21.2832 436.743 21.3662 436.909 21.5322C437.085 21.6885 437.173 21.874 437.173 22.0889C437.173 22.9482 436.479 23.9248 435.092 25.0186C433.706 26.1025 432.241 26.6445 430.698 26.6445C429.409 26.6445 428.423 26.2637 427.739 25.502C427.065 24.7402 426.728 23.6465 426.728 22.2207C426.728 20.9023 427.221 18.2705 428.208 14.3252C427.583 14.3936 427.148 14.4277 426.904 14.4277H426.596C426.147 14.4277 425.688 14.2812 425.219 13.9883C424.76 13.6953 424.531 13.2266 424.531 12.582C424.531 11.7617 424.995 11.3516 425.923 11.3516L429.057 11.2344C429.467 10.0527 429.902 8.50488 430.361 6.59082C430.634 5.39941 431.255 4.80371 432.221 4.80371C432.758 4.80371 433.178 4.96973 433.481 5.30176C433.784 5.62402 433.935 5.98535 433.935 6.38574C433.935 6.54199 433.52 8.05078 432.69 10.9121C435.796 10.6387 437.5 10.502 437.802 10.502C438.32 10.502 438.662 10.5801 438.828 10.7363C438.994 10.8828 439.077 11.1709 439.077 11.6006C439.077 12.4697 438.34 13.0215 436.865 13.2559L431.811 14.1055ZM468.873 18.5732C468.219 20.8584 466.974 22.7871 465.138 24.3594C463.312 25.9219 461.485 26.7031 459.659 26.7031C458.214 26.7031 457.022 26.1758 456.085 25.1211C455.147 24.0566 454.679 22.7529 454.679 21.21C454.679 18.6904 455.538 16.21 457.257 13.7686C458.976 11.3271 461.061 10.1064 463.512 10.1064C465.182 10.1064 466.534 10.7266 467.569 11.9668C468.604 13.1973 469.122 14.667 469.122 16.376C469.122 17.1182 469.039 17.8457 468.873 18.5586V18.5732ZM461.256 13.9443C460.572 14.5498 459.903 15.5166 459.249 16.8447C458.595 18.1729 458.268 19.5059 458.268 20.8438C458.268 21.6543 458.414 22.3232 458.707 22.8506C459.01 23.3779 459.405 23.6416 459.894 23.6416C461.104 23.6416 462.364 22.9238 463.673 21.4883C464.981 20.0527 465.636 18.4414 465.636 16.6543C465.636 15.6484 465.421 14.8232 464.991 14.1787C464.571 13.5244 463.98 13.1973 463.219 13.1973C462.496 13.1973 461.847 13.4463 461.271 13.9443H461.256ZM477.538 18.5439L477.289 21.166C477.211 22.0059 477.172 22.8359 477.172 23.6562C477.172 24.3984 477.24 25.2578 477.377 26.2344C477.279 26.5762 477.035 26.8691 476.645 27.1133C476.254 27.3574 475.844 27.4795 475.414 27.4795C474.076 27.4795 473.407 26.6299 473.407 24.9307C473.407 24.1787 473.617 22.3818 474.037 19.54C474.33 17.499 474.477 15.9805 474.477 14.9844C474.477 14.9258 474.418 14.8574 474.301 14.7793C473.627 14.3496 473.29 13.9395 473.29 13.5488C473.29 13.041 473.666 12.4893 474.418 11.8936C474.779 11.6104 474.999 11.2832 475.077 10.9121C475.165 10.5312 475.287 9.93555 475.444 9.125C475.971 6.00977 476.786 3.79785 477.89 2.48926C479.003 1.1709 480.414 0.511719 482.123 0.511719C483.119 0.511719 483.959 0.838867 484.643 1.49316C485.336 2.1377 485.683 2.93848 485.683 3.89551C485.683 4.75488 485.483 5.64844 485.082 6.57617C484.692 7.49414 484.174 7.95312 483.529 7.95312C483.246 7.95312 483.007 7.86523 482.812 7.68945C482.616 7.50391 482.519 7.26465 482.519 6.97168L482.607 5.69727C482.607 4.17383 482.289 3.41211 481.654 3.41211C480.863 3.41211 480.121 4.4082 479.428 6.40039C478.744 8.38281 478.402 10.0723 478.402 11.4688C478.402 11.6152 478.495 11.6885 478.681 11.6885C480.702 11.6885 482.128 11.6787 482.958 11.6592C483.798 11.6396 484.218 11.9619 484.218 12.626C484.218 13.2705 483.71 13.749 482.694 14.0615C481.689 14.3643 480.629 14.5156 479.516 14.5156C478.764 14.584 478.276 14.6475 478.051 14.7061C477.817 16.1514 477.646 17.4258 477.538 18.5293V18.5439ZM505.826 14.1055C505.738 14.1055 505.459 15.1943 504.991 17.3721C504.532 19.5498 504.302 20.8682 504.302 21.3271C504.302 22.1279 504.385 22.6895 504.551 23.0117C504.727 23.3242 505.01 23.4805 505.401 23.4805C505.948 23.4805 506.47 23.3877 506.968 23.2021C507.476 23.0068 508.14 22.5771 508.96 21.9131C509.468 21.4932 509.898 21.2832 510.25 21.2832C510.533 21.2832 510.757 21.3662 510.923 21.5322C511.099 21.6885 511.187 21.874 511.187 22.0889C511.187 22.9482 510.494 23.9248 509.107 25.0186C507.72 26.1025 506.255 26.6445 504.712 26.6445C503.423 26.6445 502.437 26.2637 501.753 25.502C501.08 24.7402 500.743 23.6465 500.743 22.2207C500.743 20.9023 501.236 18.2705 502.222 14.3252C501.597 14.3936 501.163 14.4277 500.918 14.4277H500.611C500.162 14.4277 499.703 14.2812 499.234 13.9883C498.775 13.6953 498.545 13.2266 498.545 12.582C498.545 11.7617 499.009 11.3516 499.937 11.3516L503.072 11.2344C503.482 10.0527 503.917 8.50488 504.375 6.59082C504.649 5.39941 505.269 4.80371 506.236 4.80371C506.773 4.80371 507.193 4.96973 507.496 5.30176C507.798 5.62402 507.95 5.98535 507.95 6.38574C507.95 6.54199 507.535 8.05078 506.705 10.9121C509.81 10.6387 511.514 10.502 511.817 10.502C512.334 10.502 512.676 10.5801 512.842 10.7363C513.008 10.8828 513.091 11.1709 513.091 11.6006C513.091 12.4697 512.354 13.0215 510.879 13.2559L505.826 14.1055ZM518.768 19.2471C520.389 16.21 521.786 14.1445 522.958 13.0508C524.139 11.9473 525.331 11.3955 526.532 11.3955C527.362 11.3955 528.05 11.6836 528.597 12.2598C529.154 12.8262 529.559 14.3105 529.813 16.7129C529.921 17.8555 530.057 18.7783 530.223 19.4814C530.389 20.1846 530.575 20.8096 530.78 21.3564C530.985 21.8936 531.278 22.4014 531.659 22.8799C531.952 23.2607 532.098 23.627 532.098 23.9785C532.098 24.3301 531.927 24.6523 531.586 24.9453C531.254 25.2383 530.868 25.3848 530.428 25.3848C529.559 25.3848 528.788 24.9111 528.114 23.9639C527.44 23.0166 527.04 21.708 526.913 20.0381C526.756 17.9971 526.586 16.6934 526.4 16.127C526.224 15.5605 525.926 15.2773 525.506 15.2773C524.94 15.2773 523.837 16.4102 522.196 18.6758C520.565 20.9316 519.388 22.7383 518.666 24.0957C518.216 25.1211 517.87 25.7852 517.626 26.0879C517.381 26.3906 517.079 26.542 516.717 26.542C516.122 26.542 515.638 26.3955 515.267 26.1025C514.896 25.8096 514.711 25.3945 514.711 24.8574C514.711 24.5938 514.842 23.7686 515.106 22.3818C516.102 17.1377 516.918 11.5566 517.552 5.63867C517.709 4.21289 518.006 3.23145 518.446 2.69434C518.895 2.14746 519.305 1.87402 519.676 1.87402C520.194 1.87402 520.643 2.07422 521.024 2.47461C521.405 2.875 521.595 3.43164 521.595 4.14453C521.595 5.23828 521.464 6.49805 521.2 7.92383C520.936 9.34961 520.443 11.625 519.72 14.75C519.281 16.6348 518.964 18.1338 518.768 19.2471ZM543.869 4.23242C543.869 4.92578 543.556 5.53613 542.931 6.06348C542.306 6.58105 541.764 6.83984 541.305 6.83984C540.72 6.83984 540.197 6.5957 539.738 6.10742C539.289 5.61914 539.064 5.13086 539.064 4.64258C539.064 3.93945 539.289 3.37305 539.738 2.94336C540.187 2.50391 540.832 2.28418 541.672 2.28418C542.326 2.28418 542.853 2.47949 543.254 2.87012C543.664 3.25098 543.869 3.70508 543.869 4.23242ZM536.794 16.2734V16.2881C537.106 14.5107 537.263 13.4951 537.263 13.2412C537.263 12.5186 537.419 11.9131 537.731 11.4248C538.054 10.9365 538.498 10.6924 539.064 10.6924C539.728 10.6924 540.246 10.8486 540.617 11.1611C540.988 11.4736 541.174 11.8252 541.174 12.2158C541.174 12.6064 540.993 13.4121 540.632 14.6328L540.544 14.9551C540.007 16.8398 539.684 18.3779 539.577 19.5693C539.47 20.7607 539.416 21.7227 539.416 22.4551C539.416 23.0508 539.518 23.8467 539.723 24.8428C539.753 25.0186 539.767 25.165 539.767 25.2822C539.767 25.5068 539.553 25.8096 539.123 26.1904C538.703 26.5713 538.249 26.7617 537.761 26.7617C536.471 26.7617 535.827 25.7852 535.827 23.832C535.827 22.1719 536.061 20.1504 536.53 17.7676C536.628 17.2402 536.716 16.7422 536.794 16.2734ZM552.856 22.2793C552.817 21.752 551.977 21.1074 550.337 20.3457C548.325 19.3789 547.041 18.5488 546.484 17.8555C545.928 17.1523 545.649 16.3906 545.649 15.5703C545.649 13.8418 546.616 12.333 548.55 11.0439C550.493 9.74512 552.305 9.0957 553.984 9.0957C555.635 9.0957 556.46 9.81348 556.46 11.249C556.46 11.6299 556.269 11.9717 555.889 12.2744C555.518 12.5771 555.2 12.7285 554.936 12.7285C554.829 12.7285 554.639 12.6602 554.365 12.5234C554.092 12.3867 553.882 12.3184 553.735 12.3184C552.866 12.3184 551.909 12.6113 550.864 13.1973C549.819 13.7832 549.297 14.4668 549.297 15.248C549.297 15.6289 549.482 16 549.853 16.3613C550.225 16.7129 550.981 17.1572 552.124 17.6943C553.813 18.4951 554.927 19.2178 555.464 19.8623C556.001 20.5068 556.269 21.2197 556.269 22.001C556.269 23.4268 555.303 24.6182 553.369 25.5752C551.445 26.5225 549.282 26.9961 546.88 26.9961C545.112 26.9961 544.228 26.3564 544.228 25.0771C544.228 24.6084 544.414 24.208 544.785 23.876C545.156 23.5439 545.571 23.3779 546.03 23.3779C546.216 23.3779 546.504 23.4463 546.894 23.583C547.285 23.7295 547.646 23.8027 547.978 23.8027C548.896 23.8027 549.858 23.6562 550.864 23.3633C551.87 23.0703 552.534 22.709 552.856 22.2793ZM586.945 20.9609C586.945 21.9766 586.09 23.1924 584.381 24.6084C582.672 26.0146 580.743 26.7178 578.595 26.7178C576.945 26.7178 575.646 26.2002 574.699 25.165C573.751 24.1201 573.278 22.6699 573.278 20.8145C573.278 18.0801 574.244 15.5166 576.178 13.124C578.112 10.7314 580.177 9.53516 582.374 9.53516C583.468 9.53516 584.347 9.88184 585.011 10.5752C585.675 11.2686 586.007 12.0938 586.007 13.0508C586.007 14.75 585.192 16.3711 583.561 17.9141C581.93 19.4473 579.84 20.5068 577.291 21.0928C576.998 21.1611 576.852 21.3369 576.852 21.6201C576.852 22.0889 577.057 22.5381 577.467 22.9678C577.887 23.3877 578.444 23.5977 579.137 23.5977C581.1 23.5977 583.048 22.5869 584.982 20.5654C585.353 20.1748 585.714 19.9795 586.066 19.9795C586.652 19.9795 586.945 20.3066 586.945 20.9609ZM577.116 18.3682C578.659 18.0557 580.016 17.3965 581.188 16.3906C582.369 15.3848 582.96 14.4717 582.96 13.6514C582.96 13.3291 582.867 13.0605 582.682 12.8457C582.506 12.6211 582.277 12.5088 581.993 12.5088C581.144 12.5088 580.201 13.1338 579.166 14.3838C578.131 15.6338 577.448 16.9619 577.116 18.3682ZM596.24 20.9756C594.501 22.6064 593.266 24.3008 592.534 26.0586C592.221 26.791 591.889 27.3477 591.538 27.7285C590.688 27.6797 590.063 27.5039 589.663 27.2012C589.262 26.9082 589.062 26.4199 589.062 25.7363C589.062 25.1309 589.321 24.3838 589.838 23.4951C590.366 22.5967 591.664 21.1953 593.735 19.291C594.047 18.998 594.311 18.7441 594.526 18.5293C592.661 15.7949 591.728 13.6611 591.728 12.1279C591.728 10.5166 592.436 9.71094 593.852 9.71094C594.838 9.71094 595.366 10.4336 595.434 11.8789C595.493 13.3633 596.039 14.9014 597.075 16.4932C597.582 16.0342 598.124 15.4922 598.701 14.8672C598.867 14.6914 599.023 14.5303 599.169 14.3838C600.4 13.085 601.284 11.9326 601.821 10.9268C602.172 10.292 602.46 9.88184 602.685 9.69629C602.919 9.51074 603.261 9.41797 603.71 9.41797C604.208 9.41797 604.638 9.59375 604.999 9.94531C605.361 10.2969 605.541 10.7266 605.541 11.2344C605.541 12.2988 603.271 14.8818 598.73 18.9834C600.273 20.8779 601.918 22.3086 603.666 23.2754C603.881 23.4023 604.086 23.5537 604.282 23.7295C604.36 23.915 604.399 24.1152 604.399 24.3301C604.399 24.8281 604.199 25.2676 603.798 25.6484C603.398 26.0195 602.91 26.2051 602.333 26.2051C600.888 26.2051 598.857 24.4619 596.24 20.9756ZM613.005 26.8057C611.394 26.8057 610.169 26.3662 609.329 25.4873C608.489 24.6084 608.069 23.3877 608.069 21.8252C608.069 19.3643 609.07 16.7031 611.072 13.8418C613.074 10.9805 615.037 9.5498 616.961 9.5498C617.888 9.5498 618.679 10.0137 619.334 10.9414C619.988 11.8594 620.315 12.8164 620.315 13.8125C620.315 14.75 620.139 15.3848 619.788 15.7168C619.446 16.0391 619.114 16.2002 618.792 16.2002C617.844 16.2002 617.293 15.5459 617.136 14.2373C617.019 13.2803 616.78 12.8018 616.419 12.8018C615.657 12.8018 614.651 13.8857 613.401 16.0537C612.151 18.2217 611.526 20.1211 611.526 21.752C611.526 23.0703 612.239 23.7295 613.665 23.7295C615.237 23.7295 616.824 23.1729 618.425 22.0596C619.177 21.5225 619.773 21.2539 620.213 21.2539C620.75 21.2539 621.018 21.5225 621.018 22.0596C621.018 22.8115 620.154 23.793 618.425 25.0039C616.707 26.2051 614.9 26.8057 613.005 26.8057ZM633.536 4.23242C633.536 4.92578 633.223 5.53613 632.598 6.06348C631.973 6.58105 631.431 6.83984 630.972 6.83984C630.386 6.83984 629.864 6.5957 629.405 6.10742C628.956 5.61914 628.731 5.13086 628.731 4.64258C628.731 3.93945 628.956 3.37305 629.405 2.94336C629.854 2.50391 630.499 2.28418 631.339 2.28418C631.993 2.28418 632.52 2.47949 632.921 2.87012C633.331 3.25098 633.536 3.70508 633.536 4.23242ZM626.461 16.2734V16.2881C626.773 14.5107 626.929 13.4951 626.929 13.2412C626.929 12.5186 627.086 11.9131 627.398 11.4248C627.72 10.9365 628.165 10.6924 628.731 10.6924C629.395 10.6924 629.913 10.8486 630.284 11.1611C630.655 11.4736 630.841 11.8252 630.841 12.2158C630.841 12.6064 630.66 13.4121 630.299 14.6328L630.211 14.9551C629.674 16.8398 629.351 18.3779 629.244 19.5693C629.136 20.7607 629.083 21.7227 629.083 22.4551C629.083 23.0508 629.185 23.8467 629.39 24.8428C629.42 25.0186 629.434 25.165 629.434 25.2822C629.434 25.5068 629.219 25.8096 628.79 26.1904C628.37 26.5713 627.916 26.7617 627.427 26.7617C626.138 26.7617 625.494 25.7852 625.494 23.832C625.494 22.1719 625.728 20.1504 626.197 17.7676C626.295 17.2402 626.383 16.7422 626.461 16.2734ZM641.601 14.1055C641.513 14.1055 641.234 15.1943 640.766 17.3721C640.307 19.5498 640.077 20.8682 640.077 21.3271C640.077 22.1279 640.16 22.6895 640.326 23.0117C640.502 23.3242 640.785 23.4805 641.176 23.4805C641.723 23.4805 642.245 23.3877 642.743 23.2021C643.251 23.0068 643.915 22.5771 644.735 21.9131C645.243 21.4932 645.673 21.2832 646.024 21.2832C646.308 21.2832 646.532 21.3662 646.698 21.5322C646.874 21.6885 646.962 21.874 646.962 22.0889C646.962 22.9482 646.268 23.9248 644.882 25.0186C643.495 26.1025 642.03 26.6445 640.487 26.6445C639.198 26.6445 638.212 26.2637 637.528 25.502C636.854 24.7402 636.518 23.6465 636.518 22.2207C636.518 20.9023 637.011 18.2705 637.997 14.3252C637.372 14.3936 636.937 14.4277 636.693 14.4277H636.386C635.936 14.4277 635.477 14.2812 635.009 13.9883C634.55 13.6953 634.32 13.2266 634.32 12.582C634.32 11.7617 634.784 11.3516 635.712 11.3516L638.847 11.2344C639.257 10.0527 639.691 8.50488 640.15 6.59082C640.424 5.39941 641.044 4.80371 642.011 4.80371C642.548 4.80371 642.968 4.96973 643.27 5.30176C643.573 5.62402 643.725 5.98535 643.725 6.38574C643.725 6.54199 643.31 8.05078 642.479 10.9121C645.585 10.6387 647.289 10.502 647.592 10.502C648.109 10.502 648.451 10.5801 648.617 10.7363C648.783 10.8828 648.866 11.1709 648.866 11.6006C648.866 12.4697 648.129 13.0215 646.654 13.2559L641.601 14.1055ZM659.333 4.23242C659.333 4.92578 659.021 5.53613 658.396 6.06348C657.771 6.58105 657.229 6.83984 656.77 6.83984C656.184 6.83984 655.661 6.5957 655.202 6.10742C654.753 5.61914 654.528 5.13086 654.528 4.64258C654.528 3.93945 654.753 3.37305 655.202 2.94336C655.651 2.50391 656.296 2.28418 657.136 2.28418C657.79 2.28418 658.317 2.47949 658.718 2.87012C659.128 3.25098 659.333 3.70508 659.333 4.23242ZM652.258 16.2734V16.2881C652.57 14.5107 652.727 13.4951 652.727 13.2412C652.727 12.5186 652.883 11.9131 653.195 11.4248C653.518 10.9365 653.962 10.6924 654.528 10.6924C655.192 10.6924 655.71 10.8486 656.081 11.1611C656.452 11.4736 656.638 11.8252 656.638 12.2158C656.638 12.6064 656.457 13.4121 656.096 14.6328L656.008 14.9551C655.471 16.8398 655.148 18.3779 655.041 19.5693C654.934 20.7607 654.88 21.7227 654.88 22.4551C654.88 23.0508 654.982 23.8467 655.188 24.8428C655.217 25.0186 655.232 25.165 655.232 25.2822C655.232 25.5068 655.017 25.8096 654.587 26.1904C654.167 26.5713 653.713 26.7617 653.225 26.7617C651.936 26.7617 651.291 25.7852 651.291 23.832C651.291 22.1719 651.525 20.1504 651.994 17.7676C652.092 17.2402 652.18 16.7422 652.258 16.2734ZM673.726 23.8613C673.257 22.9824 672.915 21.3418 672.7 18.9395C672.486 16.4395 672.007 15.1895 671.265 15.1895C670.562 15.1895 669.346 16.4932 667.617 19.1006C665.889 21.6982 664.824 23.6172 664.424 24.8574C664.336 25.2285 664.17 25.5361 663.926 25.7803C663.692 26.0244 663.457 26.1465 663.223 26.1465C661.739 26.1465 660.996 25.4678 660.996 24.1104C660.996 23.6514 661.143 22.6064 661.436 20.9756C661.817 18.8662 662.007 16.2881 662.007 13.2412C662.007 12.7822 662.207 12.2939 662.608 11.7764C663.008 11.249 663.433 10.9854 663.882 10.9854C664.448 10.9854 664.883 11.127 665.186 11.4102C665.489 11.6934 665.64 12.4453 665.64 13.666C665.64 14.5938 665.362 16.3906 664.805 19.0566C666.924 14.0957 669.287 11.6152 671.895 11.6152C674.16 11.6152 675.489 13.3975 675.879 16.9619C676.27 20.5947 676.719 22.4111 677.227 22.4111C677.451 22.4111 677.71 22.3623 678.003 22.2646C678.355 22.1475 678.633 22.0889 678.838 22.0889C679.307 22.0889 679.541 22.3623 679.541 22.9092C679.541 23.4072 679.219 23.9395 678.574 24.5059C677.93 25.0625 677.119 25.3408 676.143 25.3408C675.01 25.3408 674.199 24.8477 673.711 23.8613H673.726ZM692.879 21.5176C691.795 22.7383 690.531 23.7441 689.085 24.5352C687.65 25.3164 686.41 25.707 685.365 25.707C684.33 25.707 683.524 25.4043 682.948 24.7988C682.381 24.1934 682.098 23.3584 682.098 22.2939C682.098 20.7803 682.669 19.0957 683.812 17.2402C684.964 15.3848 686.556 13.7734 688.587 12.4062C690.628 11.0293 692.464 10.3408 694.095 10.3408C694.994 10.3408 695.77 10.585 696.424 11.0732C696.581 11.1904 696.717 11.2881 696.834 11.3662C697.069 11.5322 697.284 11.8398 697.479 12.2891C697.684 12.7285 697.787 13.085 697.787 13.3584C697.787 13.5342 697.601 14.125 697.23 15.1309C696.849 16.1758 696.581 17.1914 696.424 18.1777C696.278 19.1543 695.98 21.6006 695.531 25.5166C695.13 28.9248 694.178 31.415 692.674 32.9873C691.17 34.5596 689.5 35.3457 687.664 35.3457C685.741 35.3457 683.871 34.6963 682.054 33.3975C680.247 32.1084 679.344 31.0439 679.344 30.2041C679.344 29.4619 679.706 29.0908 680.428 29.0908C680.711 29.0908 681.288 29.374 682.157 29.9404C684.383 31.4053 686.292 32.1377 687.884 32.1377C689.095 32.1377 690.111 31.376 690.931 29.8525C691.751 28.3389 692.401 25.5605 692.879 21.5176ZM693.231 13.373C692.508 13.373 691.561 13.8076 690.389 14.6768C689.217 15.5361 688.133 16.6982 687.137 18.1631C686.141 19.6279 685.643 20.8438 685.643 21.8105C685.643 22.3184 685.829 22.5723 686.2 22.5723C687.459 22.5723 688.709 22.0645 689.95 21.0488C691.19 20.0234 692.191 18.8467 692.953 17.5186C693.724 16.1904 694.11 15.1846 694.11 14.501C694.11 14.1592 694.022 13.8857 693.846 13.6807C693.67 13.4756 693.465 13.373 693.231 13.373ZM718.867 18.7344L719.116 18.2656C720.298 15.8926 721.567 13.9688 722.925 12.4941C724.292 11.0098 725.625 10.2676 726.924 10.2676C727.92 10.2676 728.73 10.541 729.355 11.0879C729.99 11.6348 730.307 12.2842 730.307 13.0361C730.307 13.5049 730.2 13.9102 729.985 14.252C729.77 14.584 729.472 14.75 729.092 14.75C728.486 14.75 727.934 14.501 727.436 14.0029C727.085 13.6807 726.806 13.5195 726.601 13.5195C725.869 13.5195 724.643 14.6572 722.925 16.9326C721.206 19.208 720.171 21.7666 719.819 24.6084C719.712 25.4287 719.472 26 719.101 26.3223C718.73 26.6543 718.227 26.8203 717.593 26.8203C716.919 26.8203 716.44 26.4395 716.157 25.6777C715.874 24.9062 715.732 23.6514 715.732 21.9131C715.732 21.2002 715.752 20.2383 715.791 19.0273C715.83 17.8848 715.942 16.4883 716.128 14.8379C716.177 14.4082 716.211 14.0713 716.23 13.8271C716.318 12.8701 716.416 12.2158 716.523 11.8643C716.64 11.5029 716.904 11.166 717.314 10.8535C717.724 10.541 718.178 10.3848 718.677 10.3848C719.204 10.3848 719.604 10.5361 719.878 10.8389C720.151 11.1416 720.288 11.4736 720.288 11.835C720.288 12.2939 720.068 13.2461 719.629 14.6914C719.472 15.1895 719.341 15.7852 719.233 16.4785L718.867 18.7344ZM745.286 20.9609C745.286 21.9766 744.432 23.1924 742.723 24.6084C741.014 26.0146 739.085 26.7178 736.936 26.7178C735.286 26.7178 733.987 26.2002 733.04 25.165C732.093 24.1201 731.619 22.6699 731.619 20.8145C731.619 18.0801 732.586 15.5166 734.519 13.124C736.453 10.7314 738.518 9.53516 740.716 9.53516C741.809 9.53516 742.688 9.88184 743.352 10.5752C744.016 11.2686 744.349 12.0938 744.349 13.0508C744.349 14.75 743.533 16.3711 741.902 17.9141C740.271 19.4473 738.182 20.5068 735.633 21.0928C735.34 21.1611 735.193 21.3369 735.193 21.6201C735.193 22.0889 735.398 22.5381 735.808 22.9678C736.228 23.3877 736.785 23.5977 737.478 23.5977C739.441 23.5977 741.39 22.5869 743.323 20.5654C743.694 20.1748 744.056 19.9795 744.407 19.9795C744.993 19.9795 745.286 20.3066 745.286 20.9609ZM735.457 18.3682C737 18.0557 738.357 17.3965 739.529 16.3906C740.711 15.3848 741.302 14.4717 741.302 13.6514C741.302 13.3291 741.209 13.0605 741.023 12.8457C740.848 12.6211 740.618 12.5088 740.335 12.5088C739.485 12.5088 738.543 13.1338 737.508 14.3838C736.473 15.6338 735.789 16.9619 735.457 18.3682ZM752.018 25.8535C752.027 25.209 751.642 23.8223 750.86 21.6934C749.288 17.4844 748.502 14.4863 748.502 12.6992C748.502 11.0977 749.132 10.2969 750.392 10.2969C751.622 10.2969 752.237 11.0293 752.237 12.4941C752.237 13.4316 752.257 14.1006 752.296 14.501C752.345 14.8916 752.496 15.6094 752.75 16.6543C753.014 17.6895 753.273 18.5537 753.526 19.2471C753.673 19.667 753.849 20.2139 754.054 20.8877C754.171 21.3076 754.273 21.6006 754.361 21.7666C754.42 21.6787 754.625 21.2979 754.977 20.624C755.182 20.2139 755.875 19.0518 757.057 17.1377C758.238 15.2139 759.273 13.6807 760.162 12.5381C761.061 11.3955 761.73 10.6973 762.169 10.4434C762.608 10.1895 763.072 10.0625 763.561 10.0625C764.068 10.0625 764.483 10.2285 764.806 10.5605C765.138 10.8926 765.304 11.2979 765.304 11.7764C765.304 12.3428 764.894 12.8994 764.073 13.4463C763.273 13.9932 762.179 15.2432 760.792 17.1963C759.415 19.1494 757.931 21.6055 756.339 24.5645C755.44 26.2539 754.635 27.0986 753.922 27.0986C753.307 27.0986 752.672 26.6836 752.018 25.8535ZM781.073 18.5732C780.419 20.8584 779.174 22.7871 777.338 24.3594C775.512 25.9219 773.686 26.7031 771.86 26.7031C770.414 26.7031 769.223 26.1758 768.285 25.1211C767.348 24.0566 766.879 22.7529 766.879 21.21C766.879 18.6904 767.738 16.21 769.457 13.7686C771.176 11.3271 773.261 10.1064 775.712 10.1064C777.382 10.1064 778.735 10.7266 779.77 11.9668C780.805 13.1973 781.322 14.667 781.322 16.376C781.322 17.1182 781.239 17.8457 781.073 18.5586V18.5732ZM773.456 13.9443C772.773 14.5498 772.104 15.5166 771.449 16.8447C770.795 18.1729 770.468 19.5059 770.468 20.8438C770.468 21.6543 770.614 22.3232 770.907 22.8506C771.21 23.3779 771.606 23.6416 772.094 23.6416C773.305 23.6416 774.565 22.9238 775.873 21.4883C777.182 20.0527 777.836 18.4414 777.836 16.6543C777.836 15.6484 777.621 14.8232 777.192 14.1787C776.772 13.5244 776.181 13.1973 775.419 13.1973C774.696 13.1973 774.047 13.4463 773.471 13.9443H773.456ZM791.086 1.2002C792.141 1.2002 792.668 1.77637 792.668 2.92871C792.668 3.45605 792.595 4.02734 792.449 4.64258C792.302 5.24805 791.902 6.75684 791.247 9.16895C790.769 10.917 790.403 12.8262 790.149 14.8965C789.905 16.957 789.783 18.5684 789.783 19.7305C789.783 20.9707 789.875 22.4453 790.061 24.1543C790.11 24.6133 790.134 24.9014 790.134 25.0186C790.134 25.6045 789.919 26.1074 789.49 26.5273C789.06 26.9473 788.591 27.1572 788.083 27.1572C787.39 27.1572 786.902 26.8301 786.619 26.1758C786.335 25.5215 786.194 24.3984 786.194 22.8066C786.194 19.3789 786.594 15.3408 787.395 10.6924C788.205 6.04395 788.865 3.2998 789.372 2.45996C789.89 1.62012 790.461 1.2002 791.086 1.2002ZM806.153 20.6387C805.215 22.3477 804.126 23.7051 802.886 24.7109C801.656 25.7168 800.406 26.2197 799.136 26.2197C798.384 26.2197 797.623 25.8242 796.851 25.0332C796.089 24.2422 795.708 23.0264 795.708 21.3857C795.708 20.2236 796.001 18.4707 796.587 16.127C797.095 14.1934 797.349 12.7236 797.349 11.7178C797.74 10.8975 798.35 10.4873 799.18 10.4873C799.747 10.4873 800.196 10.6777 800.528 11.0586C800.87 11.4297 801.041 11.8057 801.041 12.1865C801.041 12.8799 800.796 13.8662 800.308 15.1455C800.025 15.9072 799.717 16.9863 799.385 18.3828C799.063 19.7695 798.902 20.6582 798.902 21.0488C798.902 22.3477 799.17 22.9971 799.708 22.9971C800.557 22.9971 801.705 22.1816 803.15 20.5508C804.595 18.9199 805.538 17.25 805.977 15.541C806.417 13.8711 806.807 12.7773 807.149 12.2598C807.491 11.7422 807.974 11.4834 808.599 11.4834C809.615 11.4834 810.123 12.0498 810.123 13.1826C810.123 13.3486 810.04 13.6807 809.874 14.1787C809.297 15.9072 809.009 17.8555 809.009 20.0234C809.009 22.5625 809.439 24.0811 810.298 24.5791C810.582 24.7451 810.723 24.9502 810.723 25.1943C810.723 25.5459 810.474 25.8779 809.976 26.1904C809.478 26.5029 809.004 26.6592 808.555 26.6592C807.784 26.6592 807.188 26.1172 806.768 25.0332C806.358 23.9395 806.153 22.4746 806.153 20.6387ZM821.659 14.1055C821.571 14.1055 821.293 15.1943 820.824 17.3721C820.365 19.5498 820.135 20.8682 820.135 21.3271C820.135 22.1279 820.218 22.6895 820.384 23.0117C820.56 23.3242 820.843 23.4805 821.234 23.4805C821.781 23.4805 822.303 23.3877 822.801 23.2021C823.309 23.0068 823.973 22.5771 824.794 21.9131C825.301 21.4932 825.731 21.2832 826.083 21.2832C826.366 21.2832 826.591 21.3662 826.757 21.5322C826.932 21.6885 827.02 21.874 827.02 22.0889C827.02 22.9482 826.327 23.9248 824.94 25.0186C823.553 26.1025 822.089 26.6445 820.546 26.6445C819.257 26.6445 818.27 26.2637 817.587 25.502C816.913 24.7402 816.576 23.6465 816.576 22.2207C816.576 20.9023 817.069 18.2705 818.055 14.3252C817.43 14.3936 816.996 14.4277 816.752 14.4277H816.444C815.995 14.4277 815.536 14.2812 815.067 13.9883C814.608 13.6953 814.379 13.2266 814.379 12.582C814.379 11.7617 814.842 11.3516 815.77 11.3516L818.905 11.2344C819.315 10.0527 819.75 8.50488 820.209 6.59082C820.482 5.39941 821.102 4.80371 822.069 4.80371C822.606 4.80371 823.026 4.96973 823.329 5.30176C823.632 5.62402 823.783 5.98535 823.783 6.38574C823.783 6.54199 823.368 8.05078 822.538 10.9121C825.643 10.6387 827.347 10.502 827.65 10.502C828.168 10.502 828.509 10.5801 828.675 10.7363C828.841 10.8828 828.924 11.1709 828.924 11.6006C828.924 12.4697 828.187 13.0215 826.713 13.2559L821.659 14.1055ZM839.391 4.23242C839.391 4.92578 839.079 5.53613 838.454 6.06348C837.829 6.58105 837.287 6.83984 836.828 6.83984C836.242 6.83984 835.72 6.5957 835.261 6.10742C834.811 5.61914 834.587 5.13086 834.587 4.64258C834.587 3.93945 834.811 3.37305 835.261 2.94336C835.71 2.50391 836.354 2.28418 837.194 2.28418C837.849 2.28418 838.376 2.47949 838.776 2.87012C839.186 3.25098 839.391 3.70508 839.391 4.23242ZM832.316 16.2734V16.2881C832.629 14.5107 832.785 13.4951 832.785 13.2412C832.785 12.5186 832.941 11.9131 833.254 11.4248C833.576 10.9365 834.02 10.6924 834.587 10.6924C835.251 10.6924 835.768 10.8486 836.14 11.1611C836.511 11.4736 836.696 11.8252 836.696 12.2158C836.696 12.6064 836.516 13.4121 836.154 14.6328L836.066 14.9551C835.529 16.8398 835.207 18.3779 835.099 19.5693C834.992 20.7607 834.938 21.7227 834.938 22.4551C834.938 23.0508 835.041 23.8467 835.246 24.8428C835.275 25.0186 835.29 25.165 835.29 25.2822C835.29 25.5068 835.075 25.8096 834.645 26.1904C834.225 26.5713 833.771 26.7617 833.283 26.7617C831.994 26.7617 831.349 25.7852 831.349 23.832C831.349 22.1719 831.584 20.1504 832.053 17.7676C832.15 17.2402 832.238 16.7422 832.316 16.2734ZM855.322 18.5732C854.668 20.8584 853.423 22.7871 851.587 24.3594C849.761 25.9219 847.935 26.7031 846.108 26.7031C844.663 26.7031 843.472 26.1758 842.534 25.1211C841.597 24.0566 841.128 22.7529 841.128 21.21C841.128 18.6904 841.987 16.21 843.706 13.7686C845.425 11.3271 847.51 10.1064 849.961 10.1064C851.631 10.1064 852.983 10.7266 854.019 11.9668C855.054 13.1973 855.571 14.667 855.571 16.376C855.571 17.1182 855.488 17.8457 855.322 18.5586V18.5732ZM847.705 13.9443C847.021 14.5498 846.353 15.5166 845.698 16.8447C845.044 18.1729 844.717 19.5059 844.717 20.8438C844.717 21.6543 844.863 22.3232 845.156 22.8506C845.459 23.3779 845.854 23.6416 846.343 23.6416C847.554 23.6416 848.813 22.9238 850.122 21.4883C851.431 20.0527 852.085 18.4414 852.085 16.6543C852.085 15.6484 851.87 14.8232 851.44 14.1787C851.021 13.5244 850.43 13.1973 849.668 13.1973C848.945 13.1973 848.296 13.4463 847.72 13.9443H847.705ZM872.279 23.8613C871.81 22.9824 871.468 21.3418 871.253 18.9395C871.038 16.4395 870.56 15.1895 869.818 15.1895C869.114 15.1895 867.899 16.4932 866.17 19.1006C864.442 21.6982 863.377 23.6172 862.977 24.8574C862.889 25.2285 862.723 25.5361 862.479 25.7803C862.244 26.0244 862.01 26.1465 861.776 26.1465C860.291 26.1465 859.549 25.4678 859.549 24.1104C859.549 23.6514 859.695 22.6064 859.988 20.9756C860.369 18.8662 860.56 16.2881 860.56 13.2412C860.56 12.7822 860.76 12.2939 861.16 11.7764C861.561 11.249 861.986 10.9854 862.435 10.9854C863.001 10.9854 863.436 11.127 863.738 11.4102C864.041 11.6934 864.193 12.4453 864.193 13.666C864.193 14.5938 863.914 16.3906 863.358 19.0566C865.477 14.0957 867.84 11.6152 870.447 11.6152C872.713 11.6152 874.041 13.3975 874.432 16.9619C874.822 20.5947 875.272 22.4111 875.779 22.4111C876.004 22.4111 876.263 22.3623 876.556 22.2646C876.907 22.1475 877.186 22.0889 877.391 22.0889C877.86 22.0889 878.094 22.3623 878.094 22.9092C878.094 23.4072 877.772 23.9395 877.127 24.5059C876.483 25.0625 875.672 25.3408 874.695 25.3408C873.563 25.3408 872.752 24.8477 872.264 23.8613H872.279ZM885.045 18.9834C884.069 18.9834 883.312 18.7832 882.775 18.3828C882.618 16.4785 882.755 14.5205 883.185 12.5088C883.663 10.3311 883.903 8.7002 883.903 7.61621C883.903 7.50879 883.951 7.10352 884.049 6.40039C884.157 5.6875 884.469 5.14551 884.987 4.77441C885.504 4.40332 885.944 4.21777 886.305 4.21777C886.696 4.21777 887.067 4.36426 887.418 4.65723C887.78 4.94043 887.96 5.25293 887.96 5.59473C887.96 5.86816 887.76 6.88379 887.36 8.6416C886.969 10.3896 886.578 12.001 886.188 13.4756C885.778 15.0088 885.563 16.2344 885.543 17.1523C885.524 17.8457 885.358 18.4561 885.045 18.9834ZM882.965 25.7217C881.891 25.7217 881.354 25.126 881.354 23.9346C881.354 23.4854 881.574 22.9678 882.013 22.3818C882.452 21.7959 882.926 21.5029 883.434 21.5029C883.766 21.5029 884.181 21.6641 884.679 21.9863C885.177 22.3086 885.426 22.582 885.426 22.8066L885.28 23.7148C885.192 24.3594 884.874 24.8574 884.327 25.209C883.781 25.5508 883.326 25.7217 882.965 25.7217Z" fill="white"/>
</svg>
