<svg width="1160" height="203" viewBox="0 0 1160 203" fill="none" xmlns="http://www.w3.org/2000/svg">
<path d="M0 40C0 17.9086 17.9086 0 40 0H1160V163C1160 185.091 1142.09 203 1120 203H0V40Z" fill="#2C61CB"/>
<path d="M1097.49 71.0744C1095.22 71.6734 1092.95 72.2724 1090.34 72.9731C1089.49 73.3096 1088.98 73.5443 1088.47 73.7791C1087.09 74.1013 1085.71 74.4234 1083.98 74.8069C1082.89 75.1654 1082.16 75.4627 1081.27 75.7477C1080.83 75.8223 1080.54 75.9091 1080.09 76.0024C1079.41 76.1998 1078.9 76.3908 1078.39 76.5817C1075.84 77.2931 1073.29 78.0044 1070.41 78.7646C1069.81 78.951 1069.54 79.0887 1069.27 79.2263C1057.23 82.6953 1045.18 86.1641 1033.14 89.6334C1029.28 90.7433 1025.41 91.7872 1021.59 92.9933C1019.62 93.6129 1018.59 93.0538 1018.04 91.1093C1015.22 81.2208 1012.4 71.3311 1009.48 61.4736C1008.71 58.8918 1010.12 58.2534 1012.1 57.6869C1028.98 52.8396 1045.86 47.97 1062.74 43.087C1070.61 40.8086 1078.47 38.4789 1086.34 36.1872C1089.37 35.3045 1089.76 35.5094 1090.62 38.4817C1092.65 45.4669 1094.66 52.4592 1096.79 59.7768C1097.11 60.6331 1097.33 61.1613 1097.55 61.6895C1098.16 64.195 1098.77 66.7006 1099.26 69.4746C1098.59 70.1868 1098.04 70.6306 1097.49 71.0744Z" fill="white" fill-opacity="0.3"/>
<path d="M978.848 139.591C980.517 139.659 982.187 139.783 983.856 139.786C996.423 139.802 1008.99 139.795 1021.75 139.795C1021.75 151.838 1021.75 163.769 1021.75 176.094C1020.89 176.094 1019.93 176.094 1018.97 176.094C993.74 176.094 968.515 176.094 943.29 176.094C939.299 176.093 939.131 175.926 939.122 172.036C939.12 171.031 939.094 170.026 939.083 168.589C939.061 167.444 939.033 166.732 939.054 165.794C939.072 163.884 939.042 162.199 939.06 160.306C939.071 159.389 939.035 158.681 939 157.973C939.041 153.302 939.096 148.631 939.12 143.96C939.142 139.836 939.168 139.802 943.389 139.793C950.65 139.778 957.911 139.755 965.631 139.753C968.664 139.727 971.24 139.684 973.816 139.64C974.324 139.688 974.832 139.736 975.751 139.805C977.057 139.748 977.952 139.669 978.848 139.591Z" fill="white" fill-opacity="0.3"/>
<path d="M1067.77 176.196C1067.56 176.172 1067.34 176.149 1066.75 176.117C1064.82 176.145 1063.27 176.181 1061.73 176.218C1050.5 176.184 1039.27 176.15 1028.04 176.116C1027.15 176.114 1026.25 176.116 1025.25 176.116C1025.25 163.901 1025.25 151.955 1025.25 139.682C1052.07 139.682 1078.78 139.682 1105.86 139.725C1106.76 140.151 1107.29 140.534 1107.84 141.146C1107.92 143.392 1107.97 145.407 1107.97 147.569C1107.93 148.458 1107.97 149.2 1108 149.942C1107.97 157.37 1107.93 164.798 1107.9 172.226C1107.89 175.978 1107.75 176.109 1103.91 176.117C1094.72 176.134 1085.54 176.155 1075.89 176.158C1072.88 176.158 1070.32 176.177 1067.77 176.196Z" fill="white" fill-opacity="0.3"/>
<path d="M1015.99 136.386C1004.37 136.386 992.996 136.386 981.343 136.386C981.343 133.721 981.343 131.236 981.343 128.751C981.343 121.381 981.336 114.011 981.346 106.642C981.349 103.669 981.775 103.217 984.604 103.217C1010.57 103.212 1036.53 103.22 1062.49 103.199C1064.26 103.198 1065.73 103.412 1065.73 105.652C1065.73 115.775 1065.73 125.899 1065.73 136.386C1049.16 136.386 1032.7 136.386 1015.99 136.386Z" fill="white" fill-opacity="0.3"/>
<path d="M1051.23 91.0452C1051.89 91.0842 1052.56 91.1886 1053.22 91.1501C1055.25 91.0321 1056.17 91.9831 1056.14 93.9775C1056.11 95.8897 1056.13 97.8025 1056.13 99.8958C1049.38 99.8958 1042.8 99.8958 1036.02 99.8958C1035.92 98.8409 1035.81 97.6997 1035.73 96.1482C1035.75 94.8872 1035.74 94.0365 1035.72 93.1859C1036.12 91.6447 1037.12 91.0677 1038.68 91.1449C1040.18 91.2191 1041.68 91.1484 1043.64 91.1476C1045.13 91.0966 1046.17 91.0392 1047.37 91.0131C1047.73 91.0236 1047.94 91.0028 1048.36 91.0486C1049.46 91.0918 1050.34 91.0685 1051.23 91.0452Z" fill="white" fill-opacity="0.3"/>
<path d="M992.298 91.3146C997.847 91.2016 1003.19 91.195 1008.54 91.1352C1010.28 91.1157 1011.24 91.8024 1011.24 93.6141C1011.24 95.6821 1011.24 97.7501 1011.24 99.914C1004.4 99.914 997.83 99.914 990.91 99.914C991.525 97.0572 989.726 94.0231 992.298 91.3146Z" fill="white" fill-opacity="0.3"/>
<path d="M1067.18 29.393C1069.78 28.6212 1072.18 27.9184 1074.58 27.1836C1076.27 26.6645 1077.36 27.2461 1077.84 28.929C1078.37 30.7693 1078.87 32.6175 1079.48 34.7746C1073.05 36.6527 1066.69 38.5126 1060.12 40.433C1059.48 38.2713 1058.87 36.3024 1058.32 34.3137C1057.92 32.8356 1058.53 31.9036 1060 31.485C1062.34 30.8236 1064.66 30.1289 1067.18 29.393Z" fill="white" fill-opacity="0.3"/>
<path d="M1035.65 44.5844C1035.89 45.4985 1036.08 46.2112 1036.36 47.2335C1029.97 49.1051 1023.7 50.9441 1017.02 52.8999C1016.36 50.6148 1015.57 48.4434 1015.18 46.2023C1015.07 45.5828 1016.03 44.3174 1016.73 44.0945C1021.82 42.4838 1026.94 40.9911 1032.11 39.6745C1032.78 39.5025 1034.05 40.3556 1034.54 41.076C1035.17 41.9967 1035.28 43.2648 1035.65 44.5844Z" fill="white" fill-opacity="0.3"/>
<path d="M968.891 136.083C962.213 136.26 955.689 136.26 948.858 136.26C948.858 134.107 948.654 131.933 948.965 129.836C949.079 129.067 950.392 127.923 951.19 127.896C956.376 127.721 961.57 127.822 966.761 127.798C968.378 127.79 969.045 128.683 969.077 130.132C969.121 132.056 969.062 133.981 968.891 136.083Z" fill="white" fill-opacity="0.3"/>
<path d="M1091.43 136.389C1086.85 136.389 1082.53 136.389 1077.98 136.389C1077.98 134.057 1077.77 131.95 1078.09 129.925C1078.21 129.125 1079.49 127.929 1080.28 127.901C1085.46 127.719 1090.66 127.819 1095.85 127.797C1097.4 127.791 1098.21 128.508 1098.23 130.045C1098.26 132.044 1098.24 134.044 1098.24 136.389C1095.96 136.389 1093.82 136.389 1091.43 136.389Z" fill="white" fill-opacity="0.3"/>
</svg>
