<svg width="29" height="30" viewBox="0 0 29 30" fill="none" xmlns="http://www.w3.org/2000/svg">
<path d="M10.7399 10.28C10.6833 9.10189 11.0954 7.94926 11.8862 7.07414C12.677 6.19903 13.7821 5.67262 14.9599 5.61001C16.1377 5.67262 17.2428 6.19903 18.0336 7.07414C18.8244 7.94926 19.2366 9.10189 19.1799 10.28C19.2346 11.4566 18.8215 12.6071 18.0308 13.4802C17.2402 14.3533 16.1362 14.8781 14.9599 14.94C13.7836 14.8781 12.6796 14.3533 11.889 13.4802C11.0983 12.6071 10.6852 11.4566 10.7399 10.28ZM28.9999 15C29.0042 17.7872 28.1716 20.5114 26.6099 22.82C26.569 22.8905 26.5222 22.9575 26.4699 23.02C25.1797 24.8779 23.4589 26.3958 21.4545 27.4441C19.4502 28.4925 17.2219 29.04 14.9599 29.04C12.698 29.04 10.4696 28.4925 8.46528 27.4441C6.46093 26.3958 4.74014 24.8779 3.44991 23.02C3.39763 22.9575 3.35079 22.8905 3.30991 22.82C2.08741 20.9991 1.30865 18.917 1.03607 16.7407C0.763492 14.5645 1.00469 12.3546 1.74032 10.2884C2.47594 8.22224 3.68553 6.35717 5.27206 4.84282C6.85859 3.32847 8.77792 2.20698 10.8761 1.56829C12.9743 0.929604 15.193 0.791494 17.3542 1.16504C19.5154 1.53858 21.559 2.41339 23.3211 3.71929C25.0832 5.02519 26.5147 6.72585 27.5009 8.68487C28.4871 10.6439 29.0005 12.8068 28.9999 15ZM2.41991 15C2.41615 17.1306 2.95656 19.2268 3.98991 21.09C6.15991 18.24 10.3199 16.46 14.9599 16.46C19.5999 16.46 23.7599 18.24 25.9299 21.09C26.8592 19.4157 27.3928 17.5509 27.4898 15.6385C27.5868 13.7261 27.2447 11.8169 26.4896 10.0572C25.7346 8.29745 24.5867 6.73397 23.1339 5.48656C21.681 4.23915 19.9619 3.34093 18.1082 2.86076C16.2545 2.38058 14.3155 2.3312 12.4398 2.71638C10.5641 3.10157 8.80144 3.91111 7.287 5.08294C5.77257 6.25478 4.54654 7.7578 3.70289 9.4768C2.85924 11.1958 2.42036 13.0851 2.41991 15Z" fill="#001039"/>
</svg>
